<?xml version="1.0" encoding="utf-8"?>
<!-- Generator: Adobe Illustrator 27.9.0, SVG Export Plug-In . SVG Version: 6.00 Build 0)  -->
<svg version="1.1" id="Layer_1" xmlns="http://www.w3.org/2000/svg" xmlns:xlink="http://www.w3.org/1999/xlink" x="0px" y="0px"
	 viewBox="0 0 600 600" style="enable-background:new 0 0 600 600;" xml:space="preserve">
<style type="text/css">
	.st0{fill:#02106A;}
</style>
<path class="st0" d="M135.7,79c66.5,49.9,138,151.1,164.3,205.5C326.3,230.2,397.8,129,464.3,79c48-36,125.7-63.9,125.7,24.8
	c0,17.7-10.2,148.8-16.1,170.1c-20.7,74-96.1,92.9-163.2,81.4c117.3,20,147.1,86.1,82.7,152.2C370.9,633.1,317.4,476,303.7,435.8
	c-2.5-7.4-3.7-10.8-3.7-7.9c0-2.9-1.2,0.5-3.7,7.9c-13.7,40.3-67.2,197.4-189.6,71.8c-64.4-66.1-34.6-132.3,82.7-152.2
	c-67.1,11.4-142.6-7.4-163.2-81.4C20.2,252.6,10,121.5,10,103.8C10,15.1,87.7,43,135.7,79L135.7,79z"/>
</svg>
