<?xml version="1.0" encoding="UTF-8"?>
<svg id="text" xmlns="http://www.w3.org/2000/svg" viewBox="0 0 13.98 21">
  <defs>
    <style>
      .cls-1 {
        fill: #01206a;
        stroke-width: 0px;
      }
    </style>
  </defs>
  <path class="cls-1" d="m6.99,0C3.14,0,0,3.14,0,6.99v7.02C0,17.87,3.14,21,6.99,21s6.99-3.13,6.99-6.99v-7.02C13.98,3.14,10.85,0,6.99,0Zm.93,5.31v1.92c0,.51-.42.92-.93.92s-.92-.41-.92-.92v-1.92c0-.51.41-.93.92-.93s.93.42.93.93Zm5.06,8.7c0,3.31-2.68,5.99-5.99,5.99S1,17.32,1,14.01v-2.37h11.98v2.37Zm0-3.37h-5.49v-1.57c.82-.22,1.43-.96,1.43-1.84v-1.92c0-.89-.61-1.63-1.43-1.85V1.03c3.07.25,5.49,2.83,5.49,5.96v3.65Z"/>
</svg>