<?xml version="1.0" encoding="UTF-8"?>
<svg id="text" xmlns="http://www.w3.org/2000/svg" viewBox="0 0 250.66 23.77">
  <defs>
    <style>
      .cls-1 {
        fill: #fff;
        stroke-width: 0px;
      }
    </style>
  </defs>
  <g>
    <path class="cls-1" d="m67.04,16.22h-5.24l-.9,2.56h-2.14l4.48-12.53h2.38l4.48,12.53h-2.16l-.9-2.56Zm-.58-1.67l-2.03-5.81-2.05,5.81h4.09Z"/>
    <path class="cls-1" d="m74.1,6.27v12.51h-2.05V6.27h2.05Z"/>
    <path class="cls-1" d="m89.02,16.22h-5.24l-.9,2.56h-2.14l4.48-12.53h2.38l4.48,12.53h-2.16l-.9-2.56Zm-.58-1.67l-2.03-5.81-2.05,5.81h4.09Z"/>
    <path class="cls-1" d="m93.96,11.12c.41-.77.99-1.37,1.72-1.79.73-.42,1.57-.63,2.52-.63,1.2,0,2.19.29,2.98.85.79.57,1.32,1.38,1.59,2.44h-2.21c-.18-.49-.47-.88-.86-1.15-.4-.28-.89-.41-1.49-.41-.84,0-1.51.3-2.01.89-.5.59-.75,1.42-.75,2.49s.25,1.9.75,2.5c.5.6,1.17.9,2.01.9,1.19,0,1.97-.52,2.36-1.57h2.21c-.29,1.01-.83,1.81-1.62,2.4s-1.78.89-2.95.89c-.95,0-1.79-.21-2.52-.64-.73-.43-1.3-1.03-1.72-1.8s-.62-1.67-.62-2.69.21-1.92.62-2.69Z"/>
    <path class="cls-1" d="m107.22,10.53v5.49c0,.37.09.64.26.8s.47.24.89.24h1.26v1.71h-1.62c-.92,0-1.63-.22-2.12-.65-.49-.43-.74-1.13-.74-2.11v-5.49h-1.17v-1.67h1.17v-2.47h2.07v2.47h2.41v1.67h-2.41Z"/>
    <path class="cls-1" d="m111.63,7.17c-.25-.25-.38-.56-.38-.94s.13-.68.38-.94.56-.38.94-.38.67.13.92.38.38.56.38.94-.13.68-.38.94-.56.38-.92.38-.68-.13-.94-.38Zm1.94,1.69v9.92h-2.05v-9.92h2.05Z"/>
    <path class="cls-1" d="m120.1,16.94l2.81-8.08h2.18l-3.78,9.92h-2.45l-3.76-9.92h2.2l2.81,8.08Z"/>
    <path class="cls-1" d="m126.58,11.13c.41-.77.98-1.37,1.69-1.79s1.5-.64,2.37-.64c.78,0,1.46.15,2.04.46.58.31,1.05.69,1.4,1.14v-1.44h2.07v9.92h-2.07v-1.48c-.35.47-.82.86-1.42,1.17-.6.31-1.28.47-2.05.47-.85,0-1.63-.22-2.34-.66-.71-.44-1.27-1.05-1.68-1.84-.41-.79-.62-1.68-.62-2.67s.21-1.88.62-2.65Zm7.07.9c-.28-.5-.65-.89-1.11-1.15s-.95-.4-1.48-.4-1.02.13-1.48.39c-.46.26-.82.64-1.11,1.13-.28.5-.42,1.09-.42,1.77s.14,1.28.42,1.8c.28.52.65.91,1.12,1.18s.95.4,1.47.4,1.02-.13,1.48-.4c.46-.26.83-.65,1.11-1.16.28-.51.42-1.11.42-1.79s-.14-1.28-.42-1.78Z"/>
    <path class="cls-1" d="m141.24,10.53v5.49c0,.37.09.64.26.8s.47.24.89.24h1.26v1.71h-1.62c-.92,0-1.63-.22-2.12-.65-.49-.43-.74-1.13-.74-2.11v-5.49h-1.17v-1.67h1.17v-2.47h2.07v2.47h2.41v1.67h-2.41Z"/>
    <path class="cls-1" d="m145.65,7.17c-.25-.25-.38-.56-.38-.94s.13-.68.38-.94.56-.38.94-.38.67.13.92.38.38.56.38.94-.13.68-.38.94-.56.38-.92.38-.68-.13-.94-.38Zm1.94,1.69v9.92h-2.05v-9.92h2.05Z"/>
    <path class="cls-1" d="m152.05,18.3c-.76-.43-1.35-1.03-1.78-1.8s-.65-1.67-.65-2.69.22-1.9.67-2.68c.44-.78,1.05-1.38,1.82-1.8.77-.42,1.63-.63,2.57-.63s1.81.21,2.57.63c.77.42,1.37,1.02,1.82,1.8.44.78.67,1.67.67,2.68s-.23,1.9-.68,2.68c-.46.78-1.08,1.38-1.86,1.81-.79.43-1.65.64-2.6.64s-1.78-.21-2.54-.64Zm4.02-1.52c.46-.25.84-.63,1.12-1.13.29-.5.43-1.12.43-1.84s-.14-1.33-.41-1.83-.64-.87-1.1-1.12c-.46-.25-.95-.38-1.48-.38s-1.02.13-1.47.38c-.45.25-.81.63-1.07,1.12-.26.5-.4,1.11-.4,1.83,0,1.07.27,1.89.82,2.47.55.58,1.23.87,2.06.87.53,0,1.02-.13,1.49-.38Z"/>
    <path class="cls-1" d="m168.88,9.18c.62.32,1.1.8,1.45,1.44s.52,1.4.52,2.3v5.85h-2.03v-5.54c0-.89-.22-1.57-.67-2.04-.44-.47-1.05-.71-1.82-.71s-1.38.24-1.83.71c-.45.47-.68,1.15-.68,2.04v5.54h-2.05v-9.92h2.05v1.13c.34-.41.77-.73,1.29-.95s1.08-.34,1.67-.34c.78,0,1.48.16,2.1.49Z"/>
    <path class="cls-1" d="m188.41,18.78h-2.05l-6.17-9.34v9.34h-2.05V6.25h2.05l6.17,9.32V6.25h2.05v12.53Z"/>
    <path class="cls-1" d="m200.13,14.58h-7.58c.06.79.35,1.43.88,1.91.53.48,1.18.72,1.94.72,1.1,0,1.88-.46,2.34-1.39h2.21c-.3.91-.84,1.66-1.63,2.24-.79.58-1.76.87-2.92.87-.95,0-1.8-.21-2.55-.64-.75-.43-1.34-1.03-1.76-1.8-.43-.77-.64-1.67-.64-2.69s.21-1.92.62-2.69c.41-.77,1-1.37,1.75-1.79.75-.42,1.61-.63,2.58-.63s1.77.2,2.5.61c.73.41,1.3.98,1.71,1.72.41.74.61,1.59.61,2.55,0,.37-.02.71-.07,1.01Zm-2.07-1.66c-.01-.76-.28-1.36-.81-1.82-.53-.46-1.18-.68-1.96-.68-.71,0-1.31.23-1.82.68-.5.45-.8,1.06-.9,1.83h5.49Z"/>
    <path class="cls-1" d="m204.61,10.53v5.49c0,.37.09.64.26.8s.47.24.89.24h1.26v1.71h-1.62c-.92,0-1.63-.22-2.12-.65-.49-.43-.74-1.13-.74-2.11v-5.49h-1.17v-1.67h1.17v-2.47h2.07v2.47h2.41v1.67h-2.41Z"/>
    <path class="cls-1" d="m222.24,8.86l-3.08,9.92h-2.16l-2-7.33-2,7.33h-2.16l-3.1-9.92h2.09l2.07,7.97,2.11-7.97h2.14l2.02,7.94,2.05-7.94h2.02Z"/>
    <path class="cls-1" d="m225.53,18.3c-.76-.43-1.35-1.03-1.78-1.8s-.65-1.67-.65-2.69.22-1.9.67-2.68c.44-.78,1.05-1.38,1.82-1.8.77-.42,1.63-.63,2.57-.63s1.81.21,2.57.63c.77.42,1.37,1.02,1.82,1.8.44.78.67,1.67.67,2.68s-.23,1.9-.68,2.68c-.46.78-1.08,1.38-1.86,1.81-.79.43-1.65.64-2.6.64s-1.78-.21-2.54-.64Zm4.02-1.52c.46-.25.84-.63,1.12-1.13.29-.5.43-1.12.43-1.84s-.14-1.33-.41-1.83-.64-.87-1.1-1.12c-.46-.25-.95-.38-1.48-.38s-1.02.13-1.47.38c-.45.25-.81.63-1.07,1.12-.26.5-.4,1.11-.4,1.83,0,1.07.27,1.89.82,2.47.55.58,1.23.87,2.06.87.53,0,1.02-.13,1.49-.38Z"/>
    <path class="cls-1" d="m238.5,9.12c.5-.28,1.09-.42,1.77-.42v2.12h-.52c-.8,0-1.41.2-1.83.61-.41.41-.62,1.12-.62,2.12v5.22h-2.05v-9.92h2.05v1.44c.3-.5.7-.9,1.2-1.18Z"/>
    <path class="cls-1" d="m246.08,13.83l4.57,4.95h-2.77l-3.67-4.27v4.27h-2.05V5.46h2.05v7.74l3.6-4.34h2.84l-4.57,4.97Z"/>
  </g>
  <g>
    <circle class="cls-1" cx="5" cy="18.77" r="5"/>
    <circle class="cls-1" cx="12.22" cy="6.27" r="6"/>
    <circle class="cls-1" cx="19.43" cy="18.77" r="4"/>
    <circle class="cls-1" cx="33.87" cy="18.77" r="3.5"/>
    <circle class="cls-1" cx="26.65" cy="6.27" r="5.5"/>
    <circle class="cls-1" cx="41.09" cy="6.27" r="5"/>
  </g>
</svg>