<?xml version="1.0" encoding="utf-8"?>
<!-- Generator: Adobe Illustrator 27.9.0, SVG Export Plug-In . SVG Version: 6.00 Build 0)  -->
<svg version="1.1" id="Layer_1" xmlns="http://www.w3.org/2000/svg" xmlns:xlink="http://www.w3.org/1999/xlink" x="0px" y="0px"
	 viewBox="0 0 1023 1023" style="enable-background:new 0 0 1023 1023;" xml:space="preserve">
<style type="text/css">
	.st0{fill:#FFFFFF;}
	.st1{fill:#01206A;}
	.st2{font-family:'HostGrotesk-Black';}
	.st3{font-size:63.3685px;}
</style>
<g>
	<path class="st0" d="M11.5,1011.5c0-333.3,0-666.7,0-1000c333.3,0,666.7,0,1000,0c0,333.3,0,666.7,0,1000
		C678.2,1011.5,344.8,1011.5,11.5,1011.5z M405.2,133.5c-9.9,0-19.8,0-30,0c0,10.4,0,20.2,0,30c-30.2,0-60.4,0-91.2,0
		c0,10.6,0,20.3,0,30.4c-10.1,0-19.7,0-29.6,0c0,10.2,0,19.9,0,29.9c10,0,19.7,0,29.9,0c0-10,0-19.8,0-29.7c10.3,0,20,0,30.3,0
		c0,10.1,0,19.9,0,29.7c10.3,0,20.1,0,30.3,0c0-10,0-19.8,0-30.1c3,0,5.4,0,7.9,0c7.5-0.2,14.9-0.4,22.4-0.6c0,20.4,0,40.8,0,61.2
		c-9.9,0-19.9,0-30.4,0c0,10.1,0,19.9,0,30.1c-10.3,0-20.1,0-30.4,0c0,10.2,0,19.9,0,29.7c-10.3,0-20,0-30.3,0c0-10.1,0-19.8,0-29.8
		c-14.9,0-29.2,0-43.5,0c-5.3,0-10.6-0.3-15.9-0.5c0-9.7,0-19.4,0-29.2c-11,0-20.8,0-30.6,0c0,10.1,0,19.7,0,29.2
		c10.5,0,20.6,0,30.6,0c-0.2,2.1-0.7,4.2-0.7,6.3c-0.1,7.9,0,15.9,0,24.5c-40.6,0-80.5,0-120.9,0c0,9-0.1,17.3,0.1,25.6
		c0.1,3.3-0.7,4.8-4.4,4.7c-8.1-0.2-16.3-0.1-24.5-0.1c-10.4,0-20.8,0-31.8,0c0,10.3,0,20.1,0,30.3c-10.3,0-20,0-29.8,0
		c0,20.3,0,40,0,59.9c10,0,19.7,0,30,0c0-10,0-19.8,0-30c10.3,0,20.1,0,30.4,0c0-10.3,0-20,0-29.6c30.4,0,60.3,0,90.1,0
		c0,10,0,19.6,0,29.8c-10,0-19.7,0-30,0c0,20.4,0,40.2,0,60.9c-10.4,0-20.1,0-29.9,0c0-10.1,0-20.2,0-30.4c-10.5,0-20.3,0-30.1,0
		c0,10.1,0,19.9,0,30.3c10.3,0,20.2,0,30.2,0c0,9.8,0,19.5,0,29.9c10,0,19.8,0,30.1,0c0,20.4,0,40.2,0,60c10.2,0,19.8,0,30,0
		c0-10,0-19.7,0-30.1c20.7,0,40.8,0,60.9,0c0,10,0,20.1-0.1,30.1c-10,0-20.1,0-30.2,0c0,10.7,0,20.5,0,30.9c10.3,0,20.3,0,30.2,0
		c0,10,0,20.1,0.1,30.1c-10,0-20.1,0-31.1,0c0,10.2,0,20.1,0,29.9c-20,0-40,0-60,0c0-9.9,0-19.8,0-30.3c10.4,0,20.1,0,29.8,0
		c0-10.3,0-20,0-30c-6.9,0-13.3,0-19.8,0c-13.3,0.1-26.6,0.2-39.9,0.4c0-20.2,0-40.3,0-60.5c-11,0-21.3,0-31.5,0
		c0.5-10,0.9-20,1.4-30.1c-20.9,0-40.7,0-60.5,0c0,10.1,0,19.8,0,29.8c3.3,0,6.3,0,9.3,0c16.6,0.1,33.2,0.2,49.8,0.3
		c0.3,4.4,0.9,8.7,0.9,13.1c0,15.8-0.2,31.7-0.4,47.5c-9.9,0-19.7,0-30,0c0-10.9,0-20.5,0-30.4c-10.1,0-19.8,0-29.8,0
		c0,10,0,19.8,0,30.1c10,0,19.7,0,29.6,0c0,10.3,0,20,0,30.3c-10,0-19.7,0-29.5,0c0,50.5,0,100.5,0,150.6c10,0,19.7,0,30,0
		c0-30.1,0-60,0-90.4c8.3,0,16.1,0.3,23.9-0.1c5.2-0.3,6.6,1.3,6.3,6.4c-0.4,7.9-0.1,15.8-0.1,24.4c10.7,0,20.6,0,30.6,0
		c0,19.9,0,39.8,0,59.7c10.1,0,19.9,0,29.8,0c0-20.1,0-39.9,0-59.7c9.9,0,19.8,0,30.3,0c0,20.1,0,39.9,0,59.9c30.7,0,60.7,0,90.7,0
		c0,10,0,20.1,0,30c10.4,0,20.2,0,29.9,0c0,20.2,0,40.4,0,61c-10.4,0-20,0-29.8,0c0,30.3,0,60.1,0,90.5c2.2,0,4.2,0,6.2,0
		c26.1,0,52.2,0.1,78.4-0.1c4.9,0,6.1,1.5,6,6.2c-0.2,8.3,0.4,16.5,0.6,24.8c-1.1-0.2-2.3-0.6-3.4-0.6c-18.3,0-36.6,0-54.9,0
		c-0.9,0-1.9,0.3-2.7,0.4c0,10.1,0,19.8,0,29.4c20.1,0,39.9,0,60.2,0c0-3.7-0.1-7.1,0-10.6c0.2-6.3,0.4-12.5,0.7-18.8
		c9.7,0,19.4,0,29.6,0c0-11,0-20.7,0-30.5c1.3-0.1,2.1-0.3,2.9-0.3c37.9,0,75.8,0,113.8,0c1.2,0,2.5,0.6,3.8,0.8
		c0,19.7,0,39.4,0,59.1c20.7,0,40.5,0,60.2,0c0-20.1,0-39.8,0-59.6c-1-0.2-1.7-0.3-2.3-0.3c-18.1,0-36.2,0-54.4,0
		c-1.2,0-2.5,0.6-3.7,1c0.1-10.5,0.3-21.1,0.4-31.6c20,0,40,0,60.6,0c0-10.2,0-19.9,0-30.3c10.7,0,20.8,0,30.9,0c0,10,0,20,0,30.3
		c9.5,0,19.2,0,29.1,0c0-10,0-19.8,0-30.2c-9.9,0-19.5,0-29.2,0c-0.2-5.1-0.6-10.2-0.7-15.3c-0.1-4.7,0-9.5,0-14.6
		c-60.9,0-120.9,0-181.4,0c0-2.2,0-4,0-5.8c0-14.1,0-28.3,0-42.4c0-4.3-0.3-8.6-0.5-12.9c10.2,0,20.3,0,30.5,0c0-9.7,0-19.3,0-29.1
		c-10.1,0-19.9,0-30.4,0c0,10,0,19.6,0,29.2c-9.9,0.1-19.8,0.3-29.7,0.4c0-9.9,0-19.8,0-30c-10.4,0-20.2,0-30,0c0-9.9,0-19.8,0-30.2
		c20.2,0,39.9,0,59.9,0c0-10.3,0-20,0-29.8c10,0,20.1,0,30.5,0c0,10.2,0,19.8,0,29.5c10.2,0,20.1,0,30.5,0c0-10.1,0-19.8,0-30.1
		c10.3,0,20,0,30,0c0-10.5,0-20.5,0-30.5c10,0,20.1,0,30.1,0c0,9.8,0,19.6,0,29.4c-0.1,20.4-0.2,40.9-0.3,61.4c-9.9,0-19.8,0-30,0
		c0,10.7,0,20.3,0,30.4c-10.1,0-19.8,0-29.7,0c0,10.3,0,20,0,30c30.1,0,60,0,89.8,0c0-10.1,0-19.8,0-30.2c-10.1,0-19.8,0-30.2,0
		c0-10.6,0-20.5,0-30.4c1.8,0.1,3.6,0.4,5.4,0.4c16.6,0,33.3,0,49.9,0c1.8,0,3.5,0.1,5.9,0.2c0,10.2,0,19.9,0,29.5
		c10.3,0,20,0,29.7,0c0-20.1,0-39.8,0-60.1c-10.1,0-19.8,0-29.4,0c0-10.3,0-20,0-30.3c10.1,0,19.8,0,29.8,0c0-20.5,0-40.5,0-60.4
		c10,0,20.1,0,30.1,0c0,30.2,0,60.4,0,91.1c10.4,0,20.2,0,29.9,0c0,10.3,0,20.1,0,29.9c-9.9,0-19.8,0-30.1,0c0,20.5,0,40.2,0,60.5
		c-10.1,0-19.8,0-29.7,0c0,10.3,0,20,0,30.3c10,0,19.7,0,29.9,0c0,50.5,0,100.5,0,150.6c10.2,0,19.9,0,30.2,0c0-10,0-19.8,0-29.3
		c10.7,0,20.8,0,30.9,0l-0.1-0.1c0,9.7,0,19.5,0,29.4c39.9,0,79.8,0,120.5,0c0-10.1,0-19.8,0-30c10.4,0,20.1,0,29.7,0
		c0-10.2,0-19.8,0-30c-10,0-19.7,0-30,0c0-10.4,0-20.1,0-30.4c-10.3,0-20,0-30,0c0-10.3,0-20,0-29.8c20.2,0,40.1,0,60.5,0
		c0,10.1,0,19.9,0,29.1c10.5,0,20.4,0,30.3,0c-0.1,1.1-0.4,2.3-0.4,3.4c0,28.3,0,56.6,0,84.9c0,0.9,0.2,1.9,0.3,2.8
		c10,0,19.8,0,30.1,0c0-10.1,0-19.8,0-30c10.7,0,20.8,0,30.9,0c0,10,0,19.9,0,30c9.5,0,19.3,0,29,0c0-10,0-19.7,0-29.9
		c-9.9,0-19.6,0-29.2,0c-0.2-9.6-0.6-19.2-0.7-28.8c-0.1-10.4,0-20.8,0-31.7c-2.4,0-4.2,0-6,0c-16.3,0-32.6,0-48.9,0
		c-1.8,0-3.5-0.4-5.3-0.7c-0.1-1.1-0.4-2.3-0.4-3.4c0-27.5,0-54.9,0-82.4c0-1.3,0.3-2.5,0.4-3.7c10,0,19.6,0,29.7,0
		c0,10,0,19.7,0,29.9c10.3,0,20,0,30.4,0c0,10.2,0,19.9,0,30.2c10.3,0,20,0,30.3,0c0,10.2,0,20,0,29.8c10.3,0,20,0,29.7,0
		c0-30.2,0-60,0-90.3c-10,0-19.6,0-29.8,0c0-10.5,0-20.6,0-30.7c9.9,0,19.8,0,29.9,0c0-9.8,0-19.5,0-29.4c-10,0-19.7,0-29.8,0
		c0,10,0,19.8,0,29.5c-9.9,0-19.8,0-30.4,0c0-10,0-19.7,0-29.5c-10.3,0-20.1,0-30.4,0c0,10,0,19.7,0,29.5c-10.3,0-20,0-29.7,0
		c0-30.2,0-60,0-89.7c10.1,0,19.8,0,29.9,0c0,10,0,19.6,0,29.5c10.1,0,19.9,0,30.4,0c0-10,0-19.8,0-29.3c10.6,0,20.3,0,30.1,0
		c0,9.7,0,19.5,0,29.3c10.4,0,20.1,0,29.8,0c0-10.1,0-19.8,0-29.1c-10.2,0-20.1,0-30,0c0-10.5,0.1-21.1,0.1-31.6
		c9.9,0,19.8,0,29.8,0c0-9.8,0-19.6,0-29.4c-10,0-19.6,0-29.7,0c0,10,0,19.8,0,29.5c-1.3,0.1-2.6,0.4-4,0.4c-47.6,0-95.2,0-142.7,0
		c-1.4,0-2.8-0.2-4.1-0.3c0-10.3,0-20.1,0-29.9c29.9,0,59.8,0,90.2,0c0-10.2,0-19.9,0-30.1c30.4,0,60.3,0,90.3,0
		c0-10.2,0-19.9,0-30.2c-10,0-19.7,0-29.5,0c0-10.3,0-20,0-30.4c10,0,19.7,0,29.4,0c0-10.3,0-20,0-29.8c-20.1,0-39.8,0-60.1,0
		c0,10,0,19.7,0,30c-10.3,0-20.1,0-30.3,0c0,10.3,0,20,0,29.9c-10.2,0-20,0-30.2,0c0-10.1,0-19.8,0-30.1c-20.2,0-39.9,0-59.9,0
		c0-10.4,0-20.4,0-30.3c19.9,0,39.8,0,59.9,0c0-10.4,0-20.2,0-30c20,0,40.1,0,60.7,0c0-10.4,0-20.1,0-30.3c10.3,0,20,0,29.9,0
		c0-10.7,0-20.8,0-30.9c10,0,20,0,29.9,0c0-9.9,0-19.6,0-29.1c-10.1,0-19.8,0-29.8,0c0,10,0,19.6,0,29.3c-10,0-20,0-30.6,0
		c0-10.1,0-19.8,0-29.7c-20.5,0-40.4,0-60.3,0c0-10,0.1-20,0.1-30c30.1,0,60.1,0,90.6,0c0-20.9,0-41.1,0-61.3c10,0,20,0,30,0
		c0-19.8,0-39.5,0-59.3c-30.2,0-60,0-90.1,0c0,10,0,19.7,0,30c20.2,0,40,0,60.2,0c0,10.2,0,19.8,0,29.5c-2,0.2-3.9,0.6-5.9,0.6
		c-26.3,0-52.6,0-78.9,0c-1.9,0-3.8,0-5.8,0c0,20.8,0,40.8,0,60.7c-20.1,0-40.1-0.1-60.2-0.1c0-9.9,0-19.8,0-30.3
		c10,0,19.7,0,29.6,0c0-10.3,0-20,0-30.4c-10,0-19.7,0-29.6,0c0-10.3,0-20,0-30.3c10.1,0,19.8,0,29.5,0c0-10.3,0-20,0-29.7
		c-40.3,0-80.1,0-120.6,0c0,10,0,19.7,0,29.5c-10.3,0-20,0-30.4,0c0-40.3,0-80.3,0-120.1c-10.4,0-20.1,0-30.3,0
		c0,20.1,0,39.9,0,60.6c-10.4,0-20.3,0-30.2,0c0-10.1,0-20.1,0-30.8c-10.1,0-19.8,0-29.9,0c0-10.5,0-20.4,0-30.4c9.9,0,19.8,0,30,0
		c0-20.2,0-40.1,0-59.9c9.9,0,19.9,0,30.3,0c0,10.1,0,19.9,0,30.1c20.4,0,40.3,0,60.7,0c0,10.3,0,20,0,29.6c10.3,0,20,0,29.6,0
		c0-50.3,0-100.3,0-150.3c-20.1,0-39.8,0-59.4,0c0,10,0,19.7,0,29.5l0.1-0.1c-10.2,0-20.4,0-31.3,0c0-9.9,0-19.6,0-29.4
		c-40.4,0-80.3,0-120.7,0c0,10,0,19.7,0,29.6c-10.3,0-20,0-30.2,0c0-10,0-19.7,0-29.5c-10.3,0-20,0-30.2,0c0,30.2,0,60,0,90.7
		c-10.2,0-20,0-29.8,0c0-10,0-20,0-31c-10.9,0-21,0-31,0c0.1-11.4,0.3-22.9,0.4-34.3c0.1-8.4,0-16.8,0-25.3c-10.4,0-20.1,0-30.3,0
		c0,10,0,19.7,0,30c-10.2,0-20,0-29.6,0c0,20.4,0,40.2,0,60.6c10.1,0,19.9,0,29.7,0C405.2,113.4,405.2,123.4,405.2,133.5z
		 M314.1,103.4c10.1,0,20.2,0,30.5,0c0-10.4,0-20.1,0-30.1c-10,0-19.9,0-30.4,0c0,10.3,0,20.3,0,30.2c-10.1,0.1-20.3,0.3-30.4,0.4
		c0.2-1.8,0.5-3.6,0.5-5.4c0-16.8,0-33.6,0-50.4c0-1.7,0.2-3.5,0.3-5.7c20.3,0,40.1,0,59.9,0c0-10.2,0-19.9,0-29.7
		c-30.2,0-60.1,0-90.1,0c0,30.1,0,60,0,90.4c2.7,0,5.1,0,7.6,0c7.3,0.2,14.5,0.4,21.8,0.6c0,9.7,0,19.5,0,29.3c10.8,0,20.5,0,30.2,0
		C314.1,122.9,314.1,113.2,314.1,103.4z M223.7,223.8c0-70.7,0-140.9,0-211c-70.5,0-140.7,0-210.9,0c0,70.5,0,140.6,0,211
		C83.2,223.8,153.3,223.8,223.7,223.8z M1009.4,12.8c-70.6,0-140.8,0-211,0c0,70.6,0,140.8,0,210.9c70.6,0,140.7,0,211,0
		C1009.4,153.3,1009.4,83.2,1009.4,12.8z M223.8,1009.4c0-70.7,0-140.8,0-211c-70.5,0-140.8,0-210.9,0c0,70.6,0,140.7,0,211
		C83.2,1009.4,153.3,1009.4,223.8,1009.4z M73.1,283.9c20.3,0,40.1,0,59.8,0c0-10.1,0-19.8,0-29.4c-20.1,0-39.8,0-59.8,0
		C73.1,264.4,73.1,274,73.1,283.9z M616.5,1009.3c0-20.1,0-39.9,0-59.7c-10,0-19.8,0-29.6,0c0,20.1,0,39.8,0,59.7
		C596.9,1009.3,606.6,1009.3,616.5,1009.3z M767.5,223.8c0-10.1,0-19.8,0-29.8c-10,0-19.7,0-29.6,0c0,10,0,19.8,0,29.8
		C747.8,223.8,757.4,223.8,767.5,223.8z M405.5,1009.3c10,0,19.7,0,29.7,0c0-9.9,0-19.6,0-29.6c-10,0-19.7,0-29.7,0
		C405.5,989.5,405.5,999.1,405.5,1009.3z"/>
	<path class="st1" d="M224.4,525.9c-20.1,0-40.2,0-60.9,0c0,10.4,0,20.1,0,30.1c-10.2,0-19.8,0-30,0c0-19.8,0-39.6,0-60
		c-10.4,0-20.1,0-30.1,0c0-10.3,0-20.1,0-29.9l-0.1,0.1c9.8,0,19.5,0,29.9,0c0-20.7,0-40.5,0-60.9c10.3,0,20,0,30,0
		c0-10.1,0-19.7,0-29.8c-29.8,0-59.6,0-90.1,0c0,9.6,0,19.3,0,29.6c-10.3,0-20,0-30.4,0c0,10.3,0,20,0,30c-10.3,0-20,0-30,0
		c0-19.9,0-39.6,0-59.9c9.8,0,19.5,0,29.8,0c0-10.2,0-20,0-30.3c11,0,21.4,0,31.8,0c8.2,0,16.3-0.1,24.5,0.1
		c3.7,0.1,4.5-1.4,4.4-4.7c-0.2-8.3-0.1-16.6-0.1-25.6c40.3,0,80.3,0,120.9,0c0-8.7,0-16.6,0-24.5c0-2.1,0.4-4.2,0.7-6.3l-0.1,0.1
		c5.3,0.2,10.6,0.5,15.9,0.5c14.3,0.1,28.6,0,43.5,0c0,10,0,19.7,0,29.8c10.3,0,20,0,30.3,0c0-9.8,0-19.5,0-29.7
		c10.3,0,20.1,0,30.4,0c0-10.2,0-20,0-30.1c10.5,0,20.5,0,30.4,0c0,0-0.2-0.2-0.2-0.2c0,9.9,0,19.8,0,29.9c50.6,0,100.6,0,151.1,0
		c0-10,0-19.8,0-30c10.3,0,20,0,30.3,0c0-20.4,0-40.2,0-60.7c10.6,0,20.5,0,30.5,0c0,0-0.1-0.1-0.1-0.1c0,20.2,0,40.4,0,61.2
		c10.2,0,20,0,29.7,0c0,10.2,0,19.7,0,29.9c-10,0-19.7,0-30,0c0,10.3,0,20,0,30.2c-8.9,0-17.2,0.2-25.5-0.1
		c-3.7-0.1-4.9,0.9-4.9,4.8c0.2,17.1,0.1,34.3,0.1,51.4c0,1.4,0.3,2.8,0.4,4.1c20.3,0,40,0,60.1,0c0-20.1,0-39.8,0-59.9
		c10.2,0,19.9,0,30.2,0c0,20.1,0,40,0,60.2c20.3,0,40.1,0,60.4,0c0,10.1,0,19.9,0,30.1c10.3,0,20,0,30.3,0c0,10.2,0,20,0,29.9
		c20.2,0,39.9,0,60,0c0-10.2,0-20.1,0-30.1l-0.1,0.1c10.4,0,20.7,0,31.1,0l-0.1-0.1c0,10,0,20,0,30.1c20.4,0,40.2,0,60.1,0l-0.1-0.1
		c0,10.4,0,20.8,0,31.2l0.1-0.1c-19.9,0-39.8,0-60.5,0c0-10.6,0-20.4,0-30.1c-10.5,0-20.2,0-30.2,0c0,19.6,0,38.7,0,57.8
		c0,10.8-0.2,21.6-0.3,32.4l0.1-0.1c-10,0-20.1,0.1-30.1,0.1c0-19.9,0-39.9,0-60.4c-10.1,0-19.9,0-30.1,0c0-10.3,0-20,0-30.6
		c-10.3,0-20.1,0-29.8,0c0-9.9,0-19.8,0-29.7c-30.9,0-60.6,0-90.9,0c0,10,0,19.7,0,30.2c-30.5,0-60.5,0-90.8,0c0,10.3,0,19.9,0,30.1
		c-10.1,0-19.8,0-29.8,0c-0.1,1.5-0.2,2.5-0.2,3.5c0,27.8,0,55.6,0,83.4c0,1,0.3,1.9,0.5,2.9l0.1,0c-10.2,0.2-20.3,0.4-30.5,0.6
		c0-9.9,0-19.8,0-30.2c-10.8,0-20.5,0-30.8,0c0-10.2,0-19.9,0-30.1c-10.3,0-20,0-30.5,0c0-10.1,0-19.7,0-29.3l-0.1,0
		c2.1-0.3,4.2-0.7,6.3-0.8c7.9-0.1,15.9,0,24.5,0c0-20.5,0-40.3,0-60.8c20.5,0,40.4,0,60.3,0c0-10.2,0-19.8,0-29.9
		c-10,0-19.7,0-29.7,0c-0.1-2-0.3-3.4-0.3-4.9c0-17-0.1-33.9,0.1-50.9c0-3.8-1.1-4.9-4.8-4.8c-6.8,0.3-13.7,0.3-20.5,0
		c-4.3-0.2-5.3,1.4-5.2,5.4c0.3,8.1,0.1,16.3,0.1,25c-4.3,0-8.1-0.1-11.8,0c-6.3,0.2-12.6,0.5-18.8,0.7c0-10.2,0-20.4,0-30.6
		c-0.6-0.2-0.9-0.4-1.2-0.4c-28.5,0-56.9,0-85.4-0.1c-2.9,0-3.7,1.2-3.6,3.9c0.1,17.6,0,35.3,0.1,52.9c0,1.1,0.3,2.2,0.4,3.5
		c9.9,0,19.7,0,30,0c0-10,0-19.7,0-29.9c19.4,0,38.2,0,57,0c0.9,0,1.9,0.4,2.8,0.6c0.1,14.1,0.3,28.2,0.4,42.4c0,5.6,0,11.2,0,17.3
		c-20.2,0-39.9,0-60.2,0c0,10.2,0,19.9,0,29.9c-10.3,0-20.1,0-30.4,0c0-10,0-19.7,0-29.6c-10.3,0-20,0-30.2,0c0,40.4,0,80.5,0,120.5
		c-10,0-20.1-0.1-30.1-0.1c0,0,0.1,0.1,0.1,0.1c0-9.9,0-19.7,0-30.3c-10.3,0-20,0-29.7,0c0-9.8,0-19.7,0-29.3c-11.5,0-21.6,0-31.6,0
		c0-10.5,0-21.1,0.1-31.6c10.2,0,20.4,0,31,0c0-2.7-0.1-5.1,0-7.6c0.2-7.3,0.4-14.5,0.6-21.8c9.7,0,19.5,0,29.7,0
		c0-10.6,0-20.4,0-30.4c10.1,0,19.7,0,29.6,0c0-10.1,0-19.8,0-29.7c-30.1,0-60,0-90,0c0,10.1,0,19.8,0,30c10.1,0,19.8,0,30,0
		c0,4-0.1,7.4,0,10.9c0.2,6.4,0.5,12.9,0.7,19.3c-10.2,0-20.4,0-31.5,0c0,10.1,0,19.8,0,29.5c-9.8,0-19.7,0-29.5,0
		c0,11,0,20.6,0,30.8c2.2,0,4.1,0,6.1,0c7.8,0.2,15.5,0.3,23.3,0.5c0,9.8,0,19.6,0,29.3c11.5,0,21.6,0,31.6,0
		c-0.2,10.2-0.4,20.3-0.5,30.5L224.4,525.9z M496.4,314.9c0,10.1,0,19.9,0,29.8c10,0,19.6,0,29.4,0c0-10,0-19.7,0-29.8
		C515.9,314.9,506.2,314.9,496.4,314.9z"/>
	<path class="st1" d="M828.6,646.8c0,9.8,0,19.6,0,29.9c1.3,0.1,2.7,0.3,4.1,0.3c47.6,0,95.2,0,142.7,0c1.3,0,2.6-0.3,4-0.4
		l-0.1-0.1c0,10.5-0.1,21.1-0.1,31.6l0.1-0.1c-9.8,0-19.5,0-30.1,0c0,9.5,0,19.4,0,29.3c-10.5,0-20.2,0-30.4,0c0-9.9,0-19.5,0-29.5
		c-10.1,0-19.8,0-29.9,0c0,29.7,0,59.5,0,89.7c9.8,0,19.5,0,29.7,0c0-9.8,0-19.6,0-29.5c10.3,0,20,0,30.4,0c0,9.8,0,19.6,0,29.5
		c10.5,0,20.4,0,30.4,0l-0.1-0.1c0,10.1,0,20.2,0,30.7c10.2,0,19.8,0,29.8,0c0,30.3,0,60.1,0,90.3c-9.7,0-19.4,0-29.7,0
		c0-9.8,0-19.5,0-29.8c-10.3,0-20,0-30.3,0c0-10.2,0-20,0-30.2c-10.3,0-20.1,0-30.4,0c0-10.2,0-19.9,0-29.9c-10.1,0-19.7,0-29.7,0
		c-0.1,1.2-0.4,2.5-0.4,3.7c0,27.5,0,54.9,0,82.4c0,1.1,0.2,2.3,0.3,3.5c0,0,0.1-0.1,0.1-0.1c-9.9,0-19.8,0-30.3,0
		c0-9.2,0-18.9,0-29.1c-20.4,0-40.3,0-60.5,0c0,9.8,0,19.5,0,29.8c10,0,19.7,0,30,0c0,10.3,0,20,0,30.4c10.3,0,20,0,30,0
		c0,10.2,0,19.8,0,30c-9.7,0-19.4,0-29.7,0c0,10.2,0,19.9,0,30c-40.6,0-80.6,0-120.5,0c0-9.9,0-19.6,0-29.4c1.8-0.1,3.6-0.4,5.4-0.4
		c16.3,0,32.5,0,48.8,0c1.8,0,3.5,0,5.1,0c0-10.5,0-20.2,0-29.9c-20,0-39.7,0-59.2,0c0,10.4,0,20.4,0,30.5c-10.1,0-20.2,0-30.9,0
		c0,9.5,0,19.3,0,29.3c-10.3,0-20,0-30.2,0c0-50,0-100,0-150.6c-10.2,0-19.9,0-29.9,0c0-10.3,0-20,0-30.3c9.9,0,19.6,0,29.7,0
		c0-20.3,0-40.1,0-60.5c10.3,0,20.2,0,30.1,0l-0.1-0.1c0,20,0,40.1,0,60.6c10.1,0,19.1,0.1,28-0.2c0.9,0,2.5-2.3,2.6-3.6
		c0.2-8.3,0-16.6,0.1-25c0.1-10.6,0.3-21.2,0.5-31.9l-0.2,0.1c9.9,0,19.8,0,30.2,0c0-10.5,0-20.3,0-30.4c40.4,0,80.2,0,120.2,0
		c0-10.2,0-19.9,0-30.2c-10.1,0-19.8,0-30.1,0c0-10.3,0-20.1,0-30.4c-20.5,0-40.5,0-60.4,0c0-9.9,0-19.8,0-30c-10.4,0-20.2,0-30,0
		c0-9.9,0-19.8,0-29.8c-10.3,0-20,0-29.8,0c0,10.1,0,20,0,29.9c-10.4-0.1-20.8-0.1-31.2-0.2l0.2,0.1c0-9.9,0-19.8,0-30.1
		c-10.3,0-20.2,0-30.1,0l0.1,0.1c0-20,0-40.1,0-60.7c5.2,0,10,0,14.7,0c15.4-0.1,30.8-0.3,46.3-0.4c0,10.1,0,20.1,0,30.8
		c30,0,59.8,0,90.1,0c0,20.3,0,40,0,60.3c10.6,0,20.7,0,30.8,0L828.6,646.8z M858.1,858.2c0-30.5,0-60.3,0-90.1
		c-30.3,0-60.1,0-90.1,0c0,30.2,0,60.1,0,90.1C798.2,858.2,828.1,858.2,858.1,858.2z M737.3,918.6c0-20.3,0-40,0-59.7
		c-20.2,0-40,0-59.8,0c0,10.1,0,19.8,0,30c10.1,0,19.8,0,30.2,0c0,10.2,0,19.9,0,29.7C717.9,918.6,727.4,918.6,737.3,918.6z"/>
	<path class="st1" d="M708.1,42.2c0-9.7,0-19.5,0-29.5c19.6,0,39.3,0,59.4,0c0,50,0,100,0,150.3c-9.6,0-19.4,0-29.6,0
		c0-9.7,0-19.4,0-29.6c-20.4,0-40.3,0-60.7,0c0-10.3,0-20,0-30.1c-10.5,0-20.4,0-30.3,0l0.1,0.1c0-20.2,0-40.4,0-60.6
		c-10.5,0-20,0-30.2,0c0,10,0,19.8,0,29.6c-10.3,0-20.1,0-29.9,0c0-9.9,0-19.7,0-29.5c-10.8,0-20.5,0-30.9,0c0,10.1,0,19.8,0,29.5
		c-9.9,0-19.8,0-29.6,0c0,21,0,40.7,0,60.9c20.4,0,40.5,0,60.7,0l-0.1-0.1c0,9.9,0,19.8,0,30.1c10.3,0,20.2,0,30.1,0l-0.1-0.1
		c0,9.9,0,19.9,0,30.4c10.1,0,19.8,0,29.9,0c0,10.7,0,20.7,0,30.8l0.2-0.2c-9.9,0-19.8,0-30.3,0c0-10.6,0-20.3,0-31
		c-10.3,0-20,0-29.8,0l0.1,0.1c0-9.9,0-19.8,0-29.5c-21,0-40.8,0-61.1,0c0,20.2,0,40.1,0,59.9c-10.2,0-19.8,0-29.9,0
		c0-10,0-19.7,0-29.7c-10.3,0-20,0-30.4,0c0,20.2,0,40.1,0,60.1c-30.6,0-60.6,0-90.5,0c0,0,0.2,0.2,0.2,0.2c0-20.4,0-40.8,0-61.2
		l-0.2,0.2c9.9,0,19.8,0,30.3,0c0,10.7,0,20.5,0,30.3c10.2,0,19.9,0,30.3,0c0-20.2,0-40.1,0-60.5c10.4,0,20.1,0,30.1,0
		c0-5.3,0-10.1,0-14.9c0.1-15,0.2-29.9,0.3-44.9c0,0-0.1,0.1-0.1,0.1c9.8,0,19.5,0,29.8,0c0-30.6,0-60.5,0-90.7
		c10.2,0,19.9,0,30.2,0c0,9.8,0,19.5,0,29.5c10.2,0,20,0,30.2,0c0-9.9,0-19.6,0-29.6c40.4,0,80.3,0,120.7,0c0,9.7,0,19.5,0,29.4
		c10.8,0,21,0,31.2,0c0,10.1,0,20.1,0,30.4c9.6,0,19.3,0,29.1,0c0-10.1,0-19.8,0-30.3C727.3,42.2,717.7,42.2,708.1,42.2z"/>
	<path class="st1" d="M223.7,223.8c-70.3,0-140.5,0-210.9,0c0-70.4,0-140.5,0-211c70.2,0,140.4,0,210.9,0
		C223.7,82.9,223.7,153.1,223.7,223.8z M42.9,193.4c50.3,0,100.2,0,150.5,0c0-50.3,0-100.3,0-150.5c-50.3,0-100.3,0-150.5,0
		C42.9,93.1,42.9,143.1,42.9,193.4z"/>
	<path class="st1" d="M1009.4,12.8c0,70.5,0,140.5,0,210.9c-70.3,0-140.4,0-211,0c0-70.1,0-140.3,0-210.9
		C868.6,12.8,938.7,12.8,1009.4,12.8z M828.6,193.4c50.5,0,100.3,0,150.4,0c0-50.4,0-100.5,0-150.5c-50.3,0-100.2,0-150.4,0
		C828.6,93.1,828.6,143.1,828.6,193.4z"/>
	<path class="st1" d="M223.8,1009.4c-70.5,0-140.5,0-210.9,0c0-70.3,0-140.4,0-211c70.2,0,140.4,0,210.9,0
		C223.8,868.6,223.8,938.7,223.8,1009.4z M43,828.5c0,50.6,0,100.6,0,150.5c50.4,0,100.4,0,150.3,0c0-50.4,0-100.4,0-150.5
		C143,828.5,93.1,828.5,43,828.5z"/>
	<path class="st1" d="M345.6,980c-0.2-8.3-0.8-16.5-0.6-24.8c0.1-4.7-1.1-6.2-6-6.2c-26.1,0.2-52.2,0.1-78.4,0.1c-2,0-3.9,0-6.2,0
		c0-30.4,0-60.2,0-90.5c9.8,0,19.4,0,29.8,0c0-20.6,0-40.8,0-61l-0.1,0.1c9.9,0,19.9,0,30.4,0c0,9,0.2,17.3-0.1,25.6
		c-0.1,4.1,1.3,5.1,5.1,5c8.3-0.3,16.5-0.1,25.3-0.1c0,2.4,0,4.2,0,6c0,16.5,0,33,0,49.4c0,1.8,0.5,3.5,0.7,5.3c-1-0.1-2-0.4-3-0.4
		c-18.5,0-36.9,0-55.4,0c-0.9,0-1.8,0.3-2.7,0.5c0,9.9,0,19.5,0,29.3c20.1,0,40,0,60.3,0c0-3.8-0.1-7.3,0-10.7
		c0.2-6.3,0.4-12.5,0.7-18.8c9.9-0.1,19.7-0.2,29.6-0.3l-0.1-0.1c0,9.9,0,19.8,0,29.9c1.2,0.2,1.8,0.4,2.4,0.4
		c39.5,0,79.1-0.1,118.6-0.1l-0.1-0.1c-0.1,10.5-0.3,21.1-0.4,31.6l0.1-0.1c-1.2-0.3-2.5-0.9-3.7-0.9c-37.9,0-75.8,0-113.8,0
		c-0.8,0-1.6,0.2-2.9,0.3c0,9.8,0,19.5,0,30.5C365,979.9,355.3,979.9,345.6,980L345.6,980z"/>
	<path class="st1" d="M646.8,224.4c9.9,0,19.8,0,30.2,0c0-20.7,0-40.5,0-60.6c10.2,0,19.9,0,30.3,0c0,39.8,0,79.8,0,120.1
		c10.4,0,20.1,0,30.4,0c0-9.8,0-19.5,0-29.5c40.4,0,80.3,0,120.6,0c0,9.7,0,19.4,0,29.7c-9.7,0-19.4,0-29.5,0c0,10.3,0,20,0,30.3
		c9.9,0,19.6,0,29.6,0c0,10.3,0,20.1,0,30.4c-9.9,0-19.6,0-29.6,0c0,10.5,0,20.4,0,30.3c0,0,0.1-0.1,0.1-0.1c-10.2,0-20.4,0-31.1,0
		c0,10.6,0,20.3,0,30.1l0.1-0.1c-9.9,0-19.8,0-29.7,0c0-20.3,0-40,0-60.4c20.1,0,40,0,59.7,0c0-10.4,0-20.1,0-29.9
		c-1.6-0.1-2.7-0.2-3.9-0.2c-28.4,0-56.9,0-85.3,0c-10.3,0-20.6-0.3-30.9-0.4l0.1,0.1c0-9.9,0-19.8,0-30.1c-10.9,0-20.6,0-30.9,0
		c0-10.2,0-19.9,0-30.1c-10.3,0-20,0-30,0c0-10.3,0-20,0-29.8L646.8,224.4z"/>
	<path class="st1" d="M828.6,525.9c0,9.9,0,19.8,0,30.3c20,0,39.7,0,59.9,0c0,10.3,0,20,0,30.1c10.2,0,19.9,0,30.2,0
		c0-9.9,0-19.7,0-29.9c10.2,0,20,0,30.3,0c0-10.3,0-20,0-30c20.3,0,40.1,0,60.1,0c0,9.7,0,19.5,0,29.8c-9.7,0-19.4,0-29.4,0
		c0,10.3,0,20.1,0,30.4c9.8,0,19.5,0,29.5,0c0,10.3,0,20,0,30.2c-30,0-59.9,0-90.3,0c0,10.2,0,19.9,0,30.1c-30.5,0-60.4,0-90.2,0
		c0,0,0.1,0.1,0.1,0.1c0-9.9,0-19.8,0-30.3c9.9,0,19.6,0,29.4,0c0-10.3,0-20,0-30.1c-10,0-19.6,0-30,0c0-10.3,0-20.1,0-30.4
		c-10.4,0-20,0-30.4,0c0-10.3,0-20.3,0-30.2l-0.1,0.1c10.4,0,20.7,0,31.1,0L828.6,525.9z"/>
	<path class="st1" d="M405,707.8c0,9.8,0,19.5,0,29.8c-20,0-39.7,0-59.9,0c0,10.4,0,20.3,0,30.2l0.1-0.1c-10.1,0-20.1,0-30.8,0
		c0-10.2,0-19.9,0-30c-20.5,0-40.4,0-60.3,0l0.1,0.1c0-20.1,0-40.1,0-60.8c10.1,0,19.8,0,29.7,0c0-10.3,0-20,0-30.2
		c-10,0-19.7,0-29.9,0c0-10.2,0-20,0-30c-10.3,0-20.1,0-29.9,0l0.2,0.2c0-10,0-20.1-0.1-30.1l-0.1,0.1c20,0,40-0.1,60-0.1
		c0,9.8,0,19.7,0,30c10.5,0,20.2,0,30,0c0,19.9,0,39.8,0,60.3c3.3,0,5.8,0,8.2,0c17.6-0.1,35.2-0.3,52.8-0.4c0,10.1,0,20.1,0,31.2
		c10.2,0,20.1,0,29.9,0L405,707.8z"/>
	<path class="st1" d="M103.5,707.8c-10,0-19.9,0-30.6,0c0-8.6-0.3-16.5,0.1-24.4c0.3-5.1-1.2-6.7-6.3-6.4
		c-7.8,0.5-15.6,0.1-23.9,0.1c0,30.4,0,60.2,0,90.4c-10.3,0-20,0-30,0c0-50.1,0-100.1,0-150.6c9.8,0,19.5,0,29.5,0
		c0-10.3,0-20,0-30.3c-9.9,0-19.6,0-29.6,0c0-10.3,0-20.1,0-30.1c9.9,0,19.7,0,29.8,0c0,9.9,0,19.5,0,30.4c10.2,0,20.1,0,30,0
		c0,0-0.1-0.1-0.1-0.1c0,9.9,0,19.7,0,29.6c10.9,0,20.6,0,31.1,0c0-10.1,0-19.8,0-29.6l-0.1,0.1c13.3-0.1,26.6-0.3,39.9-0.4
		c6.5,0,13,0,19.8,0c0,10,0,19.7,0,30c-9.6,0-19.4,0-29.8,0c0,10.5,0,20.4,0,30.3c0,0,0.1-0.1,0.1-0.1c-9.9,0-19.8,0-30.1,0
		c0,20.8,0,40.9,0,61.1L103.5,707.8z"/>
	<path class="st1" d="M525.8,767.5c0.1-20.4,0.2-40.9,0.3-61.3c0-9.8,0-19.6,0-29.4c0,0-0.1,0.1-0.1,0.1c9.9,0,19.8,0,30.3,0
		c0-10,0-19.8,0-30c20.6,0,40.7,0,60.7,0l-0.1-0.1c0,19.9,0,39.9,0,60.4c-10,0-19.7,0-29.8,0c0,10.3,0,20,0,30.3
		c9.7,0,19.4,0,29.4,0c0,20.2,0,39.9,0,60.1c-9.7,0-19.3,0-29.7,0c0-9.6,0-19.3,0-29.5c-2.4-0.1-4.1-0.2-5.9-0.2
		c-16.6,0-33.3,0-49.9,0c-1.8,0-3.6-0.3-5.4-0.4L525.8,767.5z"/>
	<path class="st1" d="M587.4,888.2c-10.1,0-20.2,0-30.9,0c0,10.4,0,20.1,0,30.3c-20.6,0-40.6,0-60.6,0c0,0,0.1,0.1,0.1,0.1
		c0-9.9,0-19.8,0-30.1c-40.9,0-81,0-121,0l0.1,0.1c0-30.4,0-60.7,0-91.1l-0.1,0.1c9.9-0.1,19.8-0.3,29.7-0.4c0,0-0.1-0.1-0.1-0.1
		c0.2,4.3,0.5,8.6,0.5,12.9c0.1,14.1,0,28.3,0,42.4c0,1.8,0,3.6,0,5.8c60.5,0,120.5,0,181.4,0c0,5.2-0.1,9.9,0,14.6
		C586.8,878.1,587.1,883.2,587.4,888.2L587.4,888.2z"/>
	<path class="st1" d="M254.3,767.7c-30,0-60.1,0-90.7,0c0-19.9,0-39.8,0-59.9c-10.5,0-20.4,0-30.3,0l0.1,0.1c0-20.4,0-40.7,0-61.1
		c0,0-0.1,0.1-0.1,0.1c20,0,40,0,60,0l-0.1-0.1c0,9.9,0,19.8,0,30.4c10.9,0,20.8,0,30.5,0c0,10.4,0,20.1,0,30.4
		c-10.1,0-19.8,0-29.6,0c0,10.3,0,20,0,30.2c20.3,0,40.3,0,60.2,0l-0.1-0.1c0,10,0,20.1,0,30.1L254.3,767.7z"/>
	<path class="st1" d="M888.8,375.3c0-20,0-39.9,0-60.8c2,0,3.9,0,5.8,0c26.3,0,52.6,0,78.9,0c2,0,3.9-0.4,5.9-0.6l-0.1-0.1
		c0,20.3,0,40.5,0,61.4c-30.4,0-60.5,0-90.6,0L888.8,375.3z"/>
	<path class="st1" d="M979.2,434.7c0,10.1,0,20.2,0,30.9c-9.9,0-19.6,0-29.9,0c0,10.3,0,20,0,30.3c-20.7,0-40.7,0-60.7,0l0.1,0.1
		c0-10,0-20.1,0-30.1l-0.1,0.1c9.9,0,19.8,0,30,0c0-10.7,0-20.4,0-31.2c-10.2,0-20.1,0-30,0l0.1,0.1c0-10,0-20.1,0-30.1l-0.1,0.1
		c19.9,0,39.8,0,60.3,0c0,9.9,0,19.6,0,29.7c10.6,0,20.6,0,30.6,0L979.2,434.7z"/>
	<path class="st1" d="M375.2,193.1c-7.5,0.2-14.9,0.4-22.4,0.6c-2.5,0.1-4.9,0-7.9,0c0,10.3,0,20,0,30.1c-10.3,0-20,0-30.3,0
		c0-9.8,0-19.6,0-29.7c-10.3,0-20,0-30.3,0c0,9.9,0,19.6,0,29.7c-10.3,0-20,0-29.9,0c0-10,0-19.7,0-29.9c9.8,0,19.5,0,29.6,0
		c0-10.1,0-19.9,0-30.4c30.7,0,60.9,0,91.2,0c0,0-0.1-0.1-0.1-0.1c0,10,0,20.1,0,30.1L375.2,193.1z"/>
	<path class="st1" d="M950,979.2c-10.1,0-20.3,0-31,0c0,10.2,0,19.9,0,30c-10.3,0-20,0-30.1,0c-0.1-0.9-0.3-1.8-0.3-2.8
		c0-28.3,0-56.6,0-84.9c0-1.1,0.3-2.3,0.4-3.5c0,0-0.1,0.1-0.1,0.1c1.8,0.2,3.5,0.6,5.3,0.6c16.3,0.1,32.6,0,48.9,0c1.8,0,3.6,0,6,0
		c0,10.9-0.1,21.3,0,31.7c0.1,9.6,0.5,19.2,0.7,28.8L950,979.2z"/>
	<path class="st1" d="M676.8,767.8c0-9.8,0-19.6,0-29.9c-9.8,0-19.5,0-29.9,0c0-30.7,0-60.9,0-91.1l-0.1,0.1c10,0,20.1,0,30.1,0
		l-0.2-0.1c0.1,1.8,0.3,3.6,0.3,5.4c0,16.4,0.2,32.9-0.1,49.3c-0.1,4.9,1.5,6.2,6.2,6c7.9-0.4,15.8-0.1,24.3-0.1c0,2.6,0,4.6,0,6.5
		c0.1,17.9,0.2,35.9,0.3,53.8c0,0,0.2-0.1,0.2-0.1c-10.4,0-20.8,0-31.2,0L676.8,767.8z"/>
	<path class="st1" d="M283.9,103.8c-7.3-0.2-14.5-0.4-21.8-0.6c-2.5-0.1-4.9,0-7.6,0c0-30.4,0-60.3,0-90.4c30,0,59.9,0,90.1,0
		c0,9.8,0,19.5,0,29.7c-19.9,0-39.6,0-59.9,0c-0.1,2.2-0.3,3.9-0.3,5.7c0,16.8,0,33.6,0,50.4C284.3,100.3,284,102.1,283.9,103.8
		C283.8,103.9,283.9,103.8,283.9,103.8z"/>
	<path class="st1" d="M496,676.7c0,10,0,19.9,0,30.5c-10,0-19.7,0-30,0c0,10.3,0,20,0,30.1c-10.4,0-20.2,0-30.5,0
		c0-9.7,0-19.3,0-29.5c-10.4,0-20.5,0-30.5,0c0,0,0.1,0.1,0.1,0.1c-0.1-10.4-0.1-20.8-0.2-31.2c30.4,0.1,60.7,0.1,91.1,0.2
		L496,676.7z"/>
	<path class="st1" d="M525.6,767.4c0,9.9,0,19.9,0,30.4c10.5,0,20.2,0,30.2,0c0,10.3,0,20,0,30.2c-29.9,0-59.7,0-89.8,0
		c0-9.9,0-19.6,0-30c9.9,0,19.6,0,29.7,0c0-10.2,0-19.8,0-30.4c10.2,0,20.1,0,30,0C525.8,767.5,525.6,767.4,525.6,767.4z"/>
	<path class="st1" d="M405.1,103.4c-9.8,0-19.5,0-29.7,0c0-20.4,0-40.2,0-60.6c9.7,0,19.4,0,29.6,0c0-10.2,0-20,0-30
		c10.2,0,19.9,0,30.3,0c0,8.5,0,16.9,0,25.3c-0.1,11.4-0.2,22.9-0.4,34.3c0,0,0.1-0.1,0.1-0.1c-9.9,0-19.8,0-30.1,0
		c0,11.2,0,21.2,0,31.1L405.1,103.4z"/>
	<path class="st1" d="M979.4,313.9c0-9.6,0-19.2,0-29.5c-20.2,0-40.1,0-60.2,0c0-10.3,0-20,0-30c30.1,0,59.9,0,90.1,0
		c0,19.8,0,39.5,0,59.3c-10,0-20,0-30,0C979.2,313.8,979.4,313.9,979.4,313.9z"/>
	<path class="st1" d="M495.6,950.1c1.2-0.3,2.5-1,3.7-1c18.1-0.1,36.2,0,54.4,0c0.6,0,1.3,0.2,2.3,0.3c0,19.8,0,39.5,0,59.6
		c-19.7,0-39.6,0-60.2,0c0-19.7,0-39.4,0-59.1C495.7,950,495.6,950.1,495.6,950.1z"/>
	<path class="st1" d="M646.8,103.4c0,19.8,0,39.7,0,59.9c-10.2,0-20.1,0-30,0c0,0,0.1,0.1,0.1,0.1c0-9.9,0-19.8,0-30.1
		c-10.6,0-20.3,0-30.1,0l0.1,0.1c0-10-0.1-20.1-0.1-30.1c20,0.1,40,0.1,60,0.2L646.8,103.4z"/>
	<path class="st1" d="M71.8,526.4c10.2,0,20.5,0,31.5,0c0,20.2,0,40.4,0,60.5c0,0,0.1-0.1,0.1-0.1c-10.4,0-20.7,0-31.1,0
		c0,0,0.1,0.1,0.1,0.1c0.1-15.8,0.3-31.7,0.4-47.5c0-4.4-0.6-8.7-0.9-13.1L71.8,526.4z"/>
	<path class="st1" d="M73.1,283.9c0-10,0-19.6,0-29.4c20,0,39.7,0,59.8,0c0,9.6,0,19.3,0,29.4C113.2,283.9,93.4,283.9,73.1,283.9z"
		/>
	<path class="st1" d="M345.6,979.9c-0.2,6.3-0.5,12.5-0.7,18.8c-0.1,3.4,0,6.9,0,10.6c-20.3,0-40.1,0-60.2,0c0-9.7,0-19.4,0-29.4
		c0.8-0.1,1.7-0.4,2.7-0.4c18.3,0,36.6,0,54.9,0C343.4,979.4,344.5,979.8,345.6,979.9C345.6,980,345.6,979.9,345.6,979.9z"/>
	<path class="st1" d="M616.5,1009.3c-9.9,0-19.6,0-29.6,0c0-19.9,0-39.6,0-59.7c9.9,0,19.6,0,29.6,0
		C616.5,969.3,616.5,989.2,616.5,1009.3z"/>
	<path class="st1" d="M72,526.3c-16.6-0.1-33.2-0.2-49.8-0.3c-3,0-6,0-9.3,0c0-10,0-19.7,0-29.8c19.8,0,39.6,0,60.5,0
		c-0.5,10.2-1,20.1-1.4,30.1C71.8,526.4,72,526.3,72,526.3z"/>
	<path class="st1" d="M133.3,707.8c0,19.8,0,39.6,0,59.7c-10,0-19.7,0-29.8,0c0-19.9,0-39.8,0-59.7c0,0-0.1,0.1-0.1,0.1
		c10,0,20.1,0,30.1,0L133.3,707.8z"/>
	<path class="st1" d="M888.6,495.9c0,9.8,0,19.6,0,30c-20.1,0-40,0-59.9,0c0,0,0.1,0.1,0.1,0.1c0-9.9,0-19.8,0-30
		c20.1,0,40,0,59.9,0L888.6,495.9z"/>
	<path class="st1" d="M526,676.7c-10,0-20.1,0-30.1,0c0,0,0.1,0.1,0.1,0.1c0-19.9,0-39.8,0-59.7c10.2,0,20,0,29.8,0
		c0,20.1,0,39.9,0,59.7L526,676.7z"/>
	<path class="st1" d="M888.7,375.2c0,10-0.1,20-0.1,30l0.1-0.1c-20,0-40,0-60,0l0.1,0.1c0-10,0-20.1,0-30.1c0,0-0.1,0.1-0.1,0.1
		c20.1,0,40.1,0.1,60.2,0.1C888.8,375.3,888.7,375.2,888.7,375.2z"/>
	<path class="st1" d="M103.4,466.1c-9.9,0-19.9,0-30.2,0c0-10.4,0-20.1,0-30.3c9.8,0,19.6,0,30.1,0
		C103.3,446,103.3,456.1,103.4,466.1C103.3,466.2,103.4,466.1,103.4,466.1z"/>
	<path class="st1" d="M224.3,586.9c-9.9,0-19.9,0-30.2,0c0-10.4,0-20.2,0-30.9c10.1,0,20.2,0,30.2,0l-0.1-0.1
		C224.2,566.3,224.2,576.6,224.3,586.9L224.3,586.9z"/>
	<path class="st1" d="M314.2,103.5c0-9.9,0-19.9,0-30.2c10.5,0,20.4,0,30.4,0c0,10,0,19.7,0,30.1c-10.3,0-20.4,0-30.5,0
		C314.1,103.4,314.2,103.5,314.2,103.5z"/>
	<path class="st1" d="M435,72.5c10,0,20.1,0,31,0c0,11,0,21,0,31c0,0,0.1-0.1,0.1-0.1c-10.4,0-20.7,0-31.1,0l0.1,0.1
		C435.1,93.1,435.1,82.7,435,72.5L435,72.5z"/>
	<path class="st1" d="M224.8,283.8c-10.1,0-20.2,0-30.6,0c0-9.4,0-19.1,0-29.2c9.8,0,19.6,0,30.6,0
		C224.7,264.5,224.7,274.1,224.8,283.8C224.7,283.8,224.8,283.8,224.8,283.8z"/>
	<path class="st1" d="M767.5,223.8c-10.1,0-19.7,0-29.6,0c0-10,0-19.7,0-29.8c9.8,0,19.6,0,29.6,0
		C767.5,204,767.5,213.7,767.5,223.8z"/>
	<path class="st1" d="M193.3,646.9c0-9.9,0-19.7,0-29.9c11,0,21.1,0,31.1,0c0,0-0.2-0.2-0.2-0.2c0,9.9,0,19.8,0,30
		c-10.9,0-20.9,0-31,0L193.3,646.9z"/>
	<path class="st1" d="M284.3,797.6c-9.8,0-19.5,0-29.9,0c0-9.9,0-19.9,0-30c0,0-0.2,0.2-0.2,0.2c9.9,0,19.8,0,30,0
		c0,10.4,0,20.2,0,30L284.3,797.6z"/>
	<path class="st1" d="M345.1,767.8c9.8,0,19.5,0,30,0c0,10.2,0,20.1,0,30l0.1-0.1c-9.9,0-19.8,0-30,0c0-10.1,0-20,0-30L345.1,767.8z
		"/>
	<path class="st1" d="M404.8,797.3c0-9.6,0-19.2,0-29.2c10.5,0,20.3,0,30.4,0c0,9.8,0,19.3,0,29.1
		C425,797.2,414.8,797.2,404.8,797.3C404.7,797.2,404.8,797.3,404.8,797.3z"/>
	<path class="st1" d="M979.5,797.6c0-9.8,0-19.5,0-29.5c10.1,0,19.8,0,29.8,0c0,9.9,0,19.6,0,29.4c-10.1,0-20,0-29.9,0
		C979.3,797.5,979.5,797.6,979.5,797.6z"/>
	<path class="st1" d="M375.2,163.4c0-9.8,0-19.6,0-30c10.1,0,20,0,30,0l-0.1-0.1c0,9.9,0,19.8,0,30c-10.2,0-20.1,0-30,0L375.2,163.4
		z"/>
	<path class="st1" d="M979.4,676.7c0-9.8,0-19.5,0-29.5c10.1,0,19.6,0,29.7,0c0,9.7,0,19.6,0,29.4c-10,0-19.9,0-29.8,0
		C979.3,676.6,979.4,676.7,979.4,676.7z"/>
	<path class="st1" d="M405.2,133.5c0-10,0-20.1,0-30.1c0,0-0.1,0.1-0.1,0.1c10,0,20.1,0,30.1,0l-0.1-0.1c0,9.9,0,19.7,0,29.9
		c-10.2,0-20.1,0-30,0L405.2,133.5z"/>
	<path class="st1" d="M979.4,434.9c0-9.6,0-19.3,0-29.3c10,0,19.7,0,29.8,0c0,9.6,0,19.3,0,29.1c-9.9,0-19.9,0-29.9,0
		C979.2,434.7,979.4,434.9,979.4,434.9z"/>
	<path class="st1" d="M224.4,556c0-10,0-20.1,0.1-30.1c0,0-0.2,0.2-0.2,0.2c10,0,20.1,0,30.1,0l-0.1-0.1c0,10,0,20,0,30
		c-10.5,0-20.2,0-29.9,0L224.4,556z"/>
	<path class="st1" d="M587.3,888.3c9.6,0,19.2,0,29.2,0c0,10.4,0,20.1,0,30.2c-9.8,0-19.5,0-29.1,0
		C587.4,908.3,587.4,898.2,587.3,888.3C587.4,888.2,587.3,888.3,587.3,888.3z"/>
	<path class="st1" d="M283.8,103.9c10.1-0.1,20.3-0.3,30.4-0.4c0,0-0.1-0.1-0.1-0.1c0,9.8,0,19.6,0,29.7c-9.7,0-19.4,0-30.2,0
		C283.9,123.2,283.9,113.5,283.8,103.9C283.9,103.8,283.8,103.9,283.8,103.9z"/>
	<path class="st1" d="M979.2,708.2c9.9,0,19.8,0,30,0c0,9.4,0,19.1,0,29.1c-9.7,0-19.4,0-29.8,0c0-9.8,0-19.6,0-29.3
		C979.4,708.1,979.2,708.2,979.2,708.2z"/>
	<path class="st1" d="M646.9,646.8c-10,0-20.1,0-30.1,0l0.1,0.1c0-10,0-20.1,0-30.1l-0.1,0.1c10,0,20.1,0,30.1,0l-0.1-0.1
		c0,10,0,20.1,0,30.1L646.9,646.8z"/>
	<path class="st1" d="M405.5,1009.3c0-10.2,0-19.8,0-29.6c10,0,19.7,0,29.7,0c0,10,0,19.6,0,29.6
		C425.1,1009.3,415.4,1009.3,405.5,1009.3z"/>
	<path class="st1" d="M949.9,979.3c9.6,0,19.2,0,29.2,0c0,10.2,0,19.9,0,29.9c-9.8,0-19.5,0-29,0c0-10.1,0-20,0-30
		C950,979.2,949.9,979.3,949.9,979.3z"/>
	<path class="st0" d="M646.9,617c-10,0-20.1,0-30.1,0c0-9.9,0-19.9,0-30.1c-10.3,0-20,0-30,0c0,10,0,19.7,0,29.9
		c10.2,0,20.1,0,30.1,0c0,10,0,20.1,0,30.1c-20.1,0-40.1,0-60.7,0c0,10.2,0,19.9,0,30c-10.5,0-20.4,0-30.3,0c0-19.8,0-39.6,0-59.7
		c-9.9,0-19.6,0-29.8,0c0,19.9,0,39.8,0,59.7c-30.4-0.1-60.7-0.1-91.1-0.2l0.2,0.2c0-9.9,0-19.8,0-30.1c20.5,0,40.3,0,60.3,0
		c0-10.1,0-19.8,0-30.2c-20.2,0-40,0-59.8,0c0-10.3,0-20,0-30.3c20.2,0,40.1,0,60.5,0c0-10.6,0-20.5,0-30.5L466,556
		c10.2-0.2,20.3-0.4,30.5-0.6c0,10.2,0,20.4,0,30.7c19.9,0,39.6,0,59.4,0c0-10.2,0-19.8,0-29.9c-2.2,0-4,0-5.8,0
		c-16.1,0-32.2,0-48.3,0c-1.8,0-3.5-0.5-5.3-0.7c-0.2-1-0.5-1.9-0.5-2.9c0-27.8,0-55.6,0-83.4c0-1,0.1-1.9,0.2-3.5
		c10,0,19.7,0,29.8,0c0-10.2,0-19.8,0-30.1c30.3,0,60.3,0,90.8,0c0-10.4,0-20.2,0-30.2c30.3,0,60,0,90.9,0c0,9.9,0,19.8,0,29.7
		l0.2-0.1c-10.1,0-20.2,0-30.8,0c0,10.7,0,20.4,0,30.8c-20.3,0-40.2,0-60,0c0,20.4,0,40.1,0,59.9c10,0,19.7,0,30,0
		c0-10,0-19.8,0-29.6c20.6,0,40.7,0,60.8,0l-0.2-0.2c0,20,0,40.1,0,60.1c0,0,0.2-0.2,0.2-0.2c-15.4,0.1-30.8,0.3-46.3,0.4
		c-4.8,0-9.5,0-14.7,0C646.9,576.9,646.9,596.9,646.9,617z M586.2,495.8c0-10.3,0-20,0-29.6c-10.1,0-19.8,0-29.5,0
		c0,10.1,0,19.8,0,29.6C566.7,495.8,576.3,495.8,586.2,495.8z"/>
	<path class="st0" d="M707.8,314.1c10.3,0.1,20.6,0.4,30.9,0.4c28.4,0.1,56.9,0,85.3,0c1.2,0,2.3,0.1,3.9,0.2c0,9.8,0,19.5,0,29.9
		c-19.8,0-39.6,0-59.7,0c0,20.4,0,40.1,0,60.4c9.9,0,19.8,0,29.7,0c0,9.9,0,19.9,0,30.1c-20.1,0-39.8,0-60,0c0-9.9,0-19.7,0-29.9
		c-10.2,0-20,0-30.3,0c0-10.2,0-20,0-30.1c-20.3,0-40.1,0-60.4,0c0-20.3,0-40.1,0-60.2c-10.3,0-20.1,0-30.2,0c0,20.1,0,39.8,0,59.9
		c-20.2,0-39.9,0-60.1,0c-0.1-1.3-0.4-2.7-0.4-4.1c0-17.1,0.1-34.3-0.1-51.4c0-3.8,1.2-4.9,4.9-4.8c8.3,0.2,16.6,0.1,25.5,0.1
		c0-10.2,0-19.9,0-30.2c10.3,0,20,0,30,0c0-10.2,0-19.8,0-29.9c-9.7,0-19.4,0-29.7,0c0-20.8,0-41,0-61.2c9.8,0,19.5,0,29.8,0
		c0,10.7,0,20.4,0,31c10.4,0,20.3,0,30.3,0c0,9.8,0,19.5,0,29.8c10,0,19.7,0,30,0c0,10.2,0,19.9,0,30.1c10.3,0,20,0,30.9,0
		C707.9,294.5,707.9,304.4,707.8,314.1c-10.1,0.1-20.3,0.1-30.3,0.1c0,10.9,0,20.6,0,30.4c10.1,0,19.8,0,30.3,0
		C707.8,334.3,707.8,324.2,707.8,314.1z"/>
	<path class="st0" d="M404.7,466.5c0,9.6,0,19.2,0,29.3c10.5,0,20.2,0,30.5,0c0,10.2,0,19.9,0,30.1c10.3,0,20,0,30.8,0
		c0,10.4,0,20.3,0,30.2c0,0,0.1-0.2,0.1-0.2c-2,0.1-4,0.4-5.9,0.4c-18.1,0-36.2,0-54.3,0c-10.3,0-20.6-0.2-30.8-0.3l0.1,0.1
		c0-19.9,0-39.8,0-60.3c-10.4,0-20.1,0-29.7,0c0-9.9,0-19.7,0-29.6c-11.1,0-20.8,0-30.6,0c0,10.1,0,19.8,0,29.5
		c10.5,0,20.6,0,30.7,0c-0.3,2.1-0.7,4.2-0.7,6.3c-0.1,7.9,0,15.8,0,24c-20.7,0-40.7,0-60.8,0l0.2,0.1c0-40.1,0-80.1,0-120.5
		c10.2,0,19.9,0,30.2,0c0,9.9,0,19.6,0,29.6c10.4,0,20.1,0,30.4,0c0-10,0-19.7,0-29.9c20.3,0,40,0,60.2,0c0-6.1,0-11.7,0-17.3
		c-0.1-14.1-0.2-28.2-0.4-42.4l-0.1,0.1c6.3-0.2,12.6-0.5,18.8-0.7c3.8-0.1,7.6,0,11.8,0c0-8.7,0.2-16.9-0.1-25
		c-0.1-4,0.9-5.7,5.2-5.4c6.8,0.3,13.7,0.3,20.5,0c3.7-0.1,4.9,1,4.8,4.8c-0.2,17-0.1,33.9-0.1,50.9c0,1.5,0.2,2.9,0.3,4.9
		c10,0,19.7,0,29.7,0c0,10.1,0,19.7,0,29.9c-19.9,0-39.8,0-60.3,0c0,20.4,0,40.3,0,60.8c-8.6,0-16.5-0.1-24.5,0
		C408.8,465.8,406.7,466.3,404.7,466.5c0-10.2,0-20.4,0-30.8c-9.8,0-19.5,0-29.3,0c0,10.1,0,19.8,0,30c4.1,0,7.8-0.1,11.6,0
		C392.9,465.9,398.8,466.3,404.7,466.5z"/>
	<path class="st0" d="M375.1,254.2c30,0,59.9,0,90.5,0c0-20.1,0-39.9,0-60.1c10.4,0,20.1,0,30.4,0c0,10,0,19.7,0,29.7
		c10.1,0,19.7,0,29.9,0c0-19.9,0-39.7,0-59.9c20.4,0,40.1,0,61.1,0c0,9.8,0,19.7,0,29.5c-10,0-19.9,0-30.5,0c0,20.5,0,40.3,0,60.7
		c-10.3,0-20.1,0-30.3,0c0,10.2,0,20,0,30c-50.5,0-100.5,0-151.1,0C375.1,274,375.1,264.1,375.1,254.2z"/>
	<path class="st0" d="M797.8,525.9c0,9.9,0,19.9,0,30.2c10.4,0,20,0,30.4,0c0,10.2,0,20.1,0,30.4c10.4,0,20,0,30,0
		c0,10.2,0,19.8,0,30.1c-9.7,0-19.4,0-29.4,0c0,10.5,0,20.4,0,30.3c-10.1,0-20.2,0-30.8,0c0-20.2,0-39.9,0-60.3
		c-30.3,0-60.1,0-90.1,0c0-10.7,0-20.8,0-30.8c0,0-0.2,0.2-0.2,0.2c19.9,0,39.7,0,60.1,0c0-10.3,0-20.2,0-30.1l-0.1,0.1
		C777.7,526,787.7,526,797.8,525.9z"/>
	<path class="st0" d="M888.7,496.1c-19.9,0-39.8,0-59.9,0c0,10.2,0,20.1,0,30c-10.4,0-20.7,0-31.1,0c0.1-10.8,0.3-21.6,0.3-32.4
		c0-19.1,0-38.2,0-57.8c10,0,19.7,0,30.2,0c0,9.7,0,19.5,0,30.1c20.7,0,40.6,0,60.5,0C888.7,476,888.7,486.1,888.7,496.1z"/>
	<path class="st0" d="M404.8,345.5c-0.9-0.2-1.9-0.6-2.8-0.6c-18.8,0-37.6,0-57,0c0,10.1,0,19.8,0,29.9c-10.3,0-20.1,0-30,0
		c-0.2-1.2-0.4-2.3-0.4-3.5c0-17.6,0-35.3-0.1-52.9c0-2.7,0.7-3.9,3.6-3.9c28.5,0.1,56.9,0.1,85.4,0.1c0.3,0,0.6,0.2,1.2,0.4
		c0,10.1,0,20.3,0,30.6C404.7,345.6,404.8,345.5,404.8,345.5z"/>
	<path class="st0" d="M224.8,405.5c-0.2-6.4-0.5-12.9-0.7-19.3c-0.1-3.5,0-6.9,0-10.9c-10.1,0-19.9,0-30,0c0-10.2,0-20,0-30
		c30,0,59.9,0,90,0c0,9.9,0,19.6,0,29.7c-9.9,0-19.5,0-29.6,0c0,10.1,0,19.8,0,30.4c-10.3,0-20,0-29.8,0
		C224.6,405.4,224.8,405.5,224.8,405.5z"/>
	<path class="st0" d="M707.7,435.1c9.8,0,19.5,0,29.8,0c0,10.5,0,20.3,0,30.6c10.2,0,20,0,30.1,0c0,20.5,0,40.4,0,60.4
		c0,0,0.1-0.1,0.1-0.1c-9.9,0-19.8,0-30.2,0c0-10.1,0-19.9,0-30c-10.3,0-20.1,0-29.8,0l0.2,0.2c-0.2-6.9-0.4-13.9-0.4-20.8
		c0-13.4,0.3-26.8,0.4-40.3L707.7,435.1z"/>
	<path class="st0" d="M224.2,555.9c9.7,0,19.5,0,29.9,0c0-9.9,0-20,0-30c10,0,20.1,0.1,30.1,0.1c0,0-0.2-0.1-0.2-0.1
		c0,20.4,0,40.7,0,61.1l0.1-0.2c-20,0-40,0.1-60,0.1C224.2,576.6,224.2,566.3,224.2,555.9z"/>
	<path class="st0" d="M828.6,405c20,0,40,0,60,0c0,10,0,20.1,0,30.1c-19.8,0-39.7,0-60.1,0C828.6,425.1,828.6,415.1,828.6,405z"/>
	<path class="st0" d="M888.5,435c9.9,0,19.8,0,30,0c0,10.7,0,20.5,0,31.2c-10.2,0-20.1,0-30,0C888.5,455.8,888.5,445.4,888.5,435z"
		/>
	<path class="st0" d="M828.8,375.1c0,10,0,20.1,0,30.1c-10.4,0-20.7,0-31.1,0c0-9.7,0-19.5,0-30.1
		C808.4,375.1,818.6,375.1,828.8,375.1z"/>
	<path class="st0" d="M496.4,314.9c9.8,0,19.6,0,29.4,0c0,10,0,19.8,0,29.8c-9.8,0-19.4,0-29.4,0
		C496.4,334.8,496.4,324.9,496.4,314.9z"/>
	<path class="st0" d="M224.8,495.6c-10.1,0-20.1,0-31.6,0c0-9.7,0-19.5,0-29.3l-0.1,0.1c10.1,0,20.2,0,31.6,0c0,9.6,0,19.5,0,29.3
		C224.6,495.7,224.8,495.6,224.8,495.6z"/>
	<path class="st0" d="M193.2,434.9c0-9.7,0-19.4,0-29.5c11.2,0,21.4,0,31.5,0c0,0-0.1-0.1-0.1-0.1c-0.2,7.3-0.4,14.5-0.6,21.8
		c-0.1,2.5,0,4.9,0,7.6c-10.6,0-20.8,0-31,0C193.1,434.8,193.2,434.9,193.2,434.9z"/>
	<path class="st0" d="M193.1,466.3c-7.8-0.2-15.5-0.3-23.3-0.5c-1.9,0-3.9,0-6.1,0c0-10.2,0-19.8,0-30.8c9.8,0,19.7,0,29.5,0
		c0,0-0.2-0.2-0.2-0.2c0,10.5,0,21.1-0.1,31.6C193,466.4,193.1,466.3,193.1,466.3z"/>
	<path class="st0" d="M254.3,526c-10,0-20.1,0-30.1,0c0.2-10.1,0.3-20.3,0.5-30.5c0,0-0.1,0.1-0.1,0.1c9.7,0,19.4,0,29.7,0
		C254.3,506.3,254.3,516.2,254.3,526z"/>
	<path class="st0" d="M707.8,767.8c-0.1-17.9-0.2-35.9-0.3-53.8c0-2,0-3.9,0-6.5c-8.4,0-16.4-0.3-24.3,0.1c-4.7,0.2-6.3-1-6.2-6
		c0.3-16.4,0.1-32.9,0.1-49.3c0-1.8-0.2-3.6-0.3-5.4c10.4,0.1,20.8,0.1,31.2,0.2l-0.2-0.1c0,9.9,0,19.8,0,30.1c10.2,0,20.2,0,30.1,0
		l-0.1-0.1c0,10.1,0,20.2,0,30.3c10.4,0,20.1,0,30.1,0c0-10.4,0-20.3,0-30.3l-0.1,0.1c19.9,0,39.8,0,60.4,0c0,10.3,0,20,0,30.4
		c10.3,0,20,0,30.1,0c0,10.3,0,20,0,30.2c-40,0-79.8,0-120.2,0c0,10.1,0,19.8,0,30.4C727.5,767.8,717.6,767.8,707.8,767.8z"/>
	<path class="st0" d="M858.1,858.2c-30.1,0-59.9,0-90.1,0c0-30.1,0-59.9,0-90.1c30,0,59.8,0,90.1,0
		C858.1,797.9,858.1,827.7,858.1,858.2z M798.3,798.2c0,10.3,0,20,0,29.7c10.1,0,19.8,0,29.6,0c0-10.1,0-19.8,0-29.7
		C817.9,798.2,808.2,798.2,798.3,798.2z"/>
	<path class="st0" d="M737.3,918.6c-9.9,0-19.5,0-29.7,0c0-9.8,0-19.5,0-29.7c-10.3,0-20,0-30.2,0c0-10.2,0-19.9,0-30
		c19.8,0,39.6,0,59.8,0C737.3,878.6,737.3,898.3,737.3,918.6z"/>
	<path class="st0" d="M676.7,767.7c10.4,0,20.8,0,31.2,0c-0.2,10.6-0.4,21.2-0.5,31.9c-0.1,8.3,0.1,16.6-0.1,25
		c0,1.3-1.6,3.6-2.6,3.6c-8.9,0.3-17.9,0.2-28,0.2C676.7,807.7,676.7,787.7,676.7,767.7z"/>
	<path class="st0" d="M708.2,979.9c0-10,0-20.1,0-30.5c19.5,0,39.2,0,59.2,0c0,9.7,0,19.4,0,29.9c-1.6,0-3.4,0-5.1,0
		c-16.3,0-32.5,0-48.8,0c-1.8,0-3.6,0.2-5.4,0.4C708.1,979.8,708.2,979.9,708.2,979.9z"/>
	<path class="st0" d="M707.9,646.9c0-9.9,0-19.7,0-29.9c9.8,0,19.4,0,29.8,0c0,10.1,0,20,0,29.8l0.2-0.1c-10,0-20.1,0-30.1,0
		L707.9,646.9z"/>
	<path class="st0" d="M737.7,646.9c9.8,0,19.6,0,30,0c0,10.2,0,20.1,0,30c0,0,0.1-0.1,0.1-0.1c-10,0-20.1,0-30.1,0
		c0,0,0.1,0.1,0.1,0.1c0-10,0-20.1,0-30.1L737.7,646.9z"/>
	<path class="st0" d="M646.8,646.9c0-10,0-20.1,0-30.1c9.9,0,19.8,0,30.1,0c0,10.3,0,20.2,0,30.1
		C666.9,646.9,656.8,646.9,646.8,646.9z"/>
	<path class="st0" d="M405,133.3c9.9,0,19.8,0,30,0c0-10.2,0-20.1,0-29.9c10.4,0,20.7,0,31.1,0c-0.1,15-0.2,29.9-0.3,44.9
		c0,4.8,0,9.6,0,14.9c-10.1,0-19.8,0-30.1,0c0,20.4,0,40.2,0,60.5c-10.3,0-20,0-30.3,0c0-9.8,0-19.6,0-30.3c-10.4,0-20.4,0-30.3,0
		c0-10,0-20.1,0-30.1c9.9,0,19.7,0,30,0C405,153.1,405,143.2,405,133.3z"/>
	<path class="st0" d="M646.9,103.5c-20-0.1-40-0.1-60-0.2l0.1,0.2c0-10.4,0-20.8,0-31.2l-0.1,0.2c9.8,0,19.5,0,29.9,0
		c0-9.9,0-19.6,0-29.6c10.1,0,19.7,0,30.2,0C646.9,63.1,646.9,83.3,646.9,103.5z"/>
	<path class="st0" d="M586.9,103.3c0,10,0.1,20.1,0.1,30.1c-20.1,0-40.2,0-60.7,0c0-20.2,0-40,0-60.9c9.8,0,19.7,0,29.6,0l-0.1-0.2
		c0,10.2,0,20.4,0,31.2c11.2,0,21.2,0,31.2,0L586.9,103.3z"/>
	<path class="st0" d="M556,72.5c0-9.7,0-19.5,0-29.5c10.4,0,20.1,0,30.9,0c0,9.8,0,19.7,0,29.5c0,0,0.1-0.2,0.1-0.2
		c-10.4,0-20.8,0-31.2,0L556,72.5z"/>
	<path class="st0" d="M586.9,133.3c9.8,0,19.5,0,30.1,0c0,10.3,0,20.2,0,30.1c-9.9,0-19.8,0-30.1,0
		C586.9,153.1,586.9,143.2,586.9,133.3z"/>
	<path class="st0" d="M708.1,42.2c9.6,0,19.2,0,29.2,0c0,10.5,0,20.2,0,30.3c-9.8,0-19.5,0-29.1,0c0-10.3,0-20.3,0-30.4
		C708.2,42.1,708.1,42.2,708.1,42.2z"/>
	<path class="st0" d="M42.9,193.4c0-50.3,0-100.3,0-150.5c50.2,0,100.2,0,150.5,0c0,50.3,0,100.2,0,150.5
		C143.1,193.4,93.1,193.4,42.9,193.4z M163.2,73.3c-30.3,0-60.2,0-90.1,0c0,30.2,0,59.9,0,89.9c30.1,0,60,0,90.1,0
		C163.2,133.1,163.2,103.4,163.2,73.3z"/>
	<path class="st0" d="M828.6,193.4c0-50.3,0-100.3,0-150.5c50.2,0,100.1,0,150.4,0c0,50,0,100.1,0,150.5
		C929,193.4,879.1,193.4,828.6,193.4z M858.7,163.2c30.3,0,60.1,0,90,0c0-30.1,0-60,0-90c-30.2,0-60.1,0-90,0
		C858.7,103.4,858.7,133.1,858.7,163.2z"/>
	<path class="st0" d="M43,828.5c50.2,0,100,0,150.3,0c0,50.1,0,100.1,0,150.5c-50,0-100,0-150.3,0C43,929.1,43,879.1,43,828.5z
		 M73.2,948.8c30.2,0,60,0,89.9,0c0-30.2,0-60.1,0-90.1c-30.1,0-59.9,0-89.9,0C73.2,888.8,73.2,918.7,73.2,948.8z"/>
	<path class="st0" d="M345.3,767.7c0,9.9,0,19.8,0,30c10.1,0,20,0,30,0c0,30.4,0,60.7,0,91.1c-9.9,0.1-19.7,0.2-29.6,0.3l0.1,0.1
		c-0.3-1.8-0.8-3.5-0.8-5.3c-0.1-16.5,0-33,0-49.4c0-1.8,0-3.6,0-6c-8.8,0-17.1-0.2-25.3,0.1c-3.9,0.1-5.3-1-5.1-5
		c0.3-8.3,0.1-16.6,0.1-25.6c-10.5,0-20.4,0-30.4,0c0-9.8,0-19.6,0-30c-10.1,0-20.1,0-30,0c0-10,0-20.1,0-30.1c19.9,0,39.8,0,60.3,0
		c0,10.1,0,19.8,0,30C325.1,767.7,335.2,767.7,345.3,767.7z"/>
	<path class="st0" d="M375.1,888.6c40,0,80.1,0,121,0c0,10.3,0,20.2,0,30.1c-39.5,0-79.1,0.1-118.6,0.1c-0.6,0-1.3-0.2-2.4-0.4
		C375.1,908.4,375.1,898.5,375.1,888.6z"/>
	<path class="st0" d="M345.6,889c-0.2,6.3-0.5,12.5-0.7,18.8c-0.1,3.5,0,6.9,0,10.7c-20.3,0-40.2,0-60.3,0c0-9.8,0-19.4,0-29.3
		c0.9-0.2,1.8-0.5,2.7-0.5c18.5,0,36.9,0,55.4,0C343.7,888.7,344.7,888.9,345.6,889C345.7,889.1,345.6,889,345.6,889z"/>
	<path class="st0" d="M193.2,646.8c10.1,0,20.1,0,31,0c0-10.2,0-20.1,0-30c9.8,0,19.6,0,29.9,0c0,10.1,0,19.8,0,30
		c10.2,0,19.9,0,29.9,0c0,10.2,0,19.9,0,30.2c-9.9,0-19.6,0-29.7,0c0,20.6,0,40.7,0,60.8c-19.9,0-39.9,0-60.2,0
		c0-10.2,0-19.9,0-30.2c9.8,0,19.5,0,29.6,0c0-10.3,0-20,0-30.4c-9.7,0-19.6,0-30.5,0C193.2,666.6,193.2,656.7,193.2,646.8z"/>
	<path class="st0" d="M375.2,676.7c-17.6,0.1-35.2,0.3-52.8,0.4c-2.4,0-4.9,0-8.2,0c0-20.5,0-40.4,0-60.3l-0.2,0.1
		c10.1,0,20.2,0,30.8,0c0-20.5,0-40.3,0-61c10.5,0,20.4,0,30.3,0l-0.1-0.1c0,40.3,0,80.7,0,121L375.2,676.7z"/>
	<path class="st0" d="M405,676.7c0.1,10.4,0.1,20.8,0.2,31.2c-9.9,0-19.7,0-29.9,0c0-11.1,0-21.1,0-31.2c0,0-0.2,0.2-0.2,0.2
		c10,0,20.1,0,30.1,0L405,676.7z"/>
	<path class="st0" d="M314.2,616.8c-9.7,0-19.4,0-30,0c0-10.3,0-20.1,0-30l-0.1,0.2c10,0,20,0,30,0c0,10.2,0,20.1,0,30L314.2,616.8z
		"/>
	<path class="st0" d="M133.5,707.9c-10,0-20.1,0-30.1,0c0-20.1,0-40.3,0-61.1c10.3,0,20.2,0,30.1,0
		C133.5,667.2,133.5,687.5,133.5,707.9z"/>
	<path class="st0" d="M72.4,586.9c10.4,0,20.7,0,31.1,0c0,9.7,0,19.5,0,29.6c-10.4,0-20.1,0-31.1,0
		C72.4,606.6,72.4,596.8,72.4,586.9z"/>
	<path class="st0" d="M435.1,103.5c-10,0-20.1,0-30.1,0c0-9.9,0-19.9,0-31.1c10.3,0,20.2,0,30.1,0
		C435.1,82.7,435.1,93.1,435.1,103.5z"/>
	<path class="st1" d="M405.2,676.9c-10,0-20.1,0-30.1,0c0-40.3,0-80.7,0-121c10.3,0.1,20.6,0.3,30.8,0.3c18.1,0.1,36.2,0,54.3,0
		c2,0,4-0.2,5.9-0.4c0,10,0,19.9,0,30.5c-20.4,0-40.3,0-60.5,0c0,10.3,0,20,0,30.3c19.8,0,39.7,0,59.8,0c0,10.3,0,20,0,30.2
		c-20,0-39.7,0-60.3,0C405.2,657.1,405.2,667,405.2,676.9z"/>
	<path class="st1" d="M707.9,435c-0.2,13.4-0.4,26.8-0.4,40.3c0,6.9,0.3,13.9,0.4,20.8c-20.1,0-40.2,0-60.8,0c0,9.9,0,19.6,0,29.6
		c-10.2,0-19.9,0-30,0c0-19.8,0-39.5,0-59.9c19.8,0,39.7,0,60,0c0-10.4,0-20.2,0-30.8C687.7,435,697.8,435,707.9,435z"/>
	<path class="st1" d="M707.7,495.9c9.8,0,19.5,0,29.8,0c0,10.1,0,19.8,0,30c10.4,0,20.3,0,30.2,0c0,9.9,0,19.8,0,30.1
		c-20.4,0-40.2,0-60.1,0C707.7,536,707.7,516,707.7,495.9z"/>
	<path class="st1" d="M496.4,555.5c1.8,0.3,3.5,0.7,5.3,0.7c16.1,0.1,32.2,0,48.3,0c1.8,0,3.6,0,5.8,0c0,10.1,0,19.8,0,29.9
		c-19.7,0-39.5,0-59.4,0C496.5,575.9,496.5,565.7,496.4,555.5C496.5,555.5,496.4,555.5,496.4,555.5z"/>
	<path class="st1" d="M586.2,495.8c-9.8,0-19.4,0-29.5,0c0-9.7,0-19.4,0-29.6c9.6,0,19.3,0,29.5,0
		C586.2,475.8,586.2,485.5,586.2,495.8z"/>
	<path class="st1" d="M617,616.8c-9.9,0-19.9,0-30.1,0c0-10.3,0-20,0-29.9c10,0,19.7,0,30,0c0,10.2,0,20.1,0,30.1
		C616.9,617,617,616.8,617,616.8z"/>
	<path class="st1" d="M707.8,314.1c0,10.1,0,20.1,0,30.5c-10.6,0-20.3,0-30.3,0c0-9.8,0-19.5,0-30.4
		C687.5,314.2,697.7,314.2,707.8,314.1C707.9,314.2,707.8,314.1,707.8,314.1z"/>
	<path class="st1" d="M314.1,617c0-9.9,0-19.7,0-30c-10,0-20,0-30,0c0-20.4,0-40.7,0-61.1c20,0,40.1,0,60.8,0c0-8.2-0.1-16.1,0-24
		c0-2.1,0.5-4.2,0.7-6.3l-0.1,0.1c9.6,0,19.3,0,29.7,0c0,20.5,0,40.4,0,60.3c-9.9,0-19.8,0-30.3,0c0,20.7,0,40.5,0,61
		C334.3,617,324.2,617,314.1,617z"/>
	<path class="st1" d="M345.7,495.6c-10.1,0-20.2,0-30.7,0c0-9.7,0-19.4,0-29.5c9.8,0,19.5,0,30.6,0c0,9.9,0,19.7,0,29.6
		C345.5,495.7,345.7,495.6,345.7,495.6z"/>
	<path class="st1" d="M404.7,466.5c-5.9-0.2-11.8-0.6-17.7-0.7c-3.8-0.1-7.6,0-11.6,0c0-10.3,0-20,0-30c9.8,0,19.5,0,29.3,0
		C404.6,446.1,404.6,456.3,404.7,466.5C404.6,466.5,404.7,466.5,404.7,466.5z"/>
	<path class="st1" d="M737.7,676.8c10,0,20.1,0,30.1,0c0,10,0,19.9,0,30.3c-10,0-19.7,0-30.1,0C737.7,696.9,737.7,686.8,737.7,676.8
		z"/>
	<path class="st1" d="M737.9,646.8c0,10,0,20.1,0,30.1c-9.9,0-19.9,0-30.1,0c0-10.3,0-20.2,0-30.1
		C717.8,646.8,727.8,646.8,737.9,646.8z"/>
	<path class="st1" d="M798.3,798.2c9.9,0,19.6,0,29.6,0c0,9.9,0,19.7,0,29.7c-9.8,0-19.5,0-29.6,0
		C798.3,818.2,798.3,808.5,798.3,798.2z"/>
	<path class="st1" d="M555.9,72.3c10.4,0,20.8,0,31.2,0c0,10.4,0,20.8,0,31.2c-10,0-19.9,0-31.2,0C555.9,92.8,555.9,82.6,555.9,72.3
		z"/>
	<path class="st1" d="M163.2,73.3c0,30.1,0,59.8,0,89.9c-30.1,0-59.9,0-90.1,0c0-30,0-59.7,0-89.9C103.1,73.3,132.9,73.3,163.2,73.3
		z"/>
	<path class="st1" d="M858.7,163.2c0-30.1,0-59.9,0-90c30,0,59.8,0,90,0c0,30,0,59.9,0,90C918.8,163.2,889.1,163.2,858.7,163.2z"/>
	<path class="st1" d="M73.2,948.8c0-30.1,0-60,0-90.1c30.1,0,59.8,0,89.9,0c0,30,0,59.9,0,90.1C133.2,948.8,103.3,948.8,73.2,948.8z
		"/>
</g>
<rect x="103.5" y="435" class="st0" width="817.1" height="153.4"/>
<text transform="matrix(1 0 0 1 119.6606 532.3818)" class="st1 st2 st3">AI ACTIVATION NETWORK</text>
</svg>
