<?xml version="1.0" encoding="UTF-8"?>
<svg id="text" xmlns="http://www.w3.org/2000/svg" viewBox="0 0 14.07 14.07">
  <defs>
    <style>
      .cls-1 {
        fill: #fff;
        stroke-width: 0px;
      }
    </style>
  </defs>
  <path class="cls-1" d="m13.84,12.71l-3.68-3.68c.71-.94,1.13-2.11,1.13-3.38,0-3.12-2.53-5.65-5.64-5.65S0,2.53,0,5.65s2.53,5.64,5.65,5.64c1.27,0,2.44-.42,3.38-1.13l3.68,3.68c.15.16.36.23.56.23.21,0,.41-.07.57-.23.31-.31.31-.82,0-1.13Zm-4.82-4.82c-.15.22-.32.43-.51.62s-.4.36-.62.51c-.64.42-1.41.67-2.24.67-2.23,0-4.05-1.81-4.05-4.04S3.42,1.6,5.65,1.6s4.04,1.82,4.04,4.05c0,.83-.25,1.6-.67,2.24Z"/>
</svg>